<svg width="546" height="404" viewBox="0 0 546 404" fill="none" xmlns="http://www.w3.org/2000/svg">
<path d="M202.314 280.311H186.196V308.649H147.15V280.311H88.7773V251.272L149.658 162.263H186.209V250.768H202.326V280.311H202.314ZM147.138 250.768V233.741C147.138 230.532 147.248 226.217 147.482 220.771C147.716 215.337 147.9 212.472 148.035 212.214H146.929C144.654 217.353 142.085 222.16 139.22 226.635L123.004 250.768H147.138Z" fill="#3C4150"/>
<path d="M318.359 235.647C318.359 261.551 314.019 280.521 305.339 292.569C296.659 304.617 283.382 310.641 265.494 310.641C247.606 310.641 234.82 304.347 225.943 291.77C217.067 279.193 212.629 260.481 212.629 235.647C212.629 210.813 216.969 190.527 225.648 178.368C234.328 166.222 247.606 160.148 265.494 160.148C283.382 160.148 296.082 166.468 304.995 179.118C313.908 191.769 318.359 210.604 318.359 235.635V235.647ZM251.97 235.647C251.97 252.207 253.003 263.579 255.081 269.788C257.146 275.996 260.625 279.094 265.494 279.094C270.362 279.094 273.915 275.886 275.956 269.48C277.997 263.075 279.005 251.789 279.005 235.635C279.005 219.48 277.972 208.047 275.907 201.543C273.842 195.039 270.362 191.781 265.494 191.781C260.625 191.781 257.146 194.916 255.081 201.199C253.015 207.469 251.97 218.951 251.97 235.647Z" fill="#3C4150"/>
<path d="M442.617 280.311H426.499V308.649H387.453V280.311H329.08V251.272L389.961 162.263H426.511V250.768H442.629V280.311H442.617ZM387.453 250.768V233.741C387.453 230.532 387.563 226.217 387.809 220.771C388.043 215.337 388.227 212.472 388.363 212.214H387.256C384.982 217.353 382.412 222.16 379.548 226.635L363.332 250.768H387.465H387.453Z" fill="#3C4150"/>
<path d="M30.0957 194.744H89.2798" stroke="white" stroke-opacity="0.36" stroke-width="2.16" stroke-linecap="round" stroke-linejoin="round"/>
<path d="M103.48 194.744H116.119" stroke="white" stroke-opacity="0.36" stroke-width="2.16" stroke-linecap="round" stroke-linejoin="round"/>
<path d="M19.377 178.085H125.328" stroke="white" stroke-opacity="0.36" stroke-width="2.16" stroke-linecap="round" stroke-linejoin="round"/>
<path d="M10.6599 178.085H1.94336" stroke="white" stroke-opacity="0.36" stroke-width="2.16" stroke-linecap="round" stroke-linejoin="round"/>
<path d="M19.377 162.263H54.5505" stroke="white" stroke-opacity="0.36" stroke-width="2.16" stroke-linecap="round" stroke-linejoin="round"/>
<path d="M63.9668 162.263H137.842" stroke="white" stroke-opacity="0.36" stroke-width="2.16" stroke-linecap="round" stroke-linejoin="round"/>
<path d="M448.42 326.882H511.747" stroke="white" stroke-opacity="0.36" stroke-width="2.16" stroke-linecap="round" stroke-linejoin="round"/>
<path d="M522.049 326.882H531.208" stroke="white" stroke-opacity="0.36" stroke-width="2.16" stroke-linecap="round" stroke-linejoin="round"/>
<path d="M461.07 310.234H544.056" stroke="white" stroke-opacity="0.36" stroke-width="2.16" stroke-linecap="round" stroke-linejoin="round"/>
<path d="M454.739 310.234H448.42" stroke="white" stroke-opacity="0.36" stroke-width="2.16" stroke-linecap="round" stroke-linejoin="round"/>
<path d="M448.42 294.4H486.569" stroke="white" stroke-opacity="0.36" stroke-width="2.16" stroke-linecap="round" stroke-linejoin="round"/>
<path d="M493.402 294.4H522.048" stroke="white" stroke-opacity="0.36" stroke-width="2.16" stroke-linecap="round" stroke-linejoin="round"/>
<path d="M209.886 279.745H193.769V308.083H154.722V279.745H96.3496V250.706L157.23 161.696H193.781V250.202H209.898V279.745H209.886ZM154.722 250.214V233.187C154.722 229.978 154.833 225.663 155.067 220.216C155.3 214.782 155.485 211.918 155.62 211.66H154.513C152.239 216.799 149.669 221.606 146.805 226.081L130.589 250.214H154.722Z" fill="#81DFE4" stroke="white" stroke-opacity="0.36" stroke-width="3.27" stroke-miterlimit="10"/>
<path d="M325.931 235.092C325.931 260.996 321.591 279.966 312.911 292.014C304.232 304.062 290.954 310.087 273.066 310.087C255.178 310.087 242.392 303.792 233.516 291.215C224.639 278.638 220.201 259.926 220.201 235.092C220.201 210.258 224.541 189.973 233.221 177.814C241.9 165.667 255.178 159.594 273.066 159.594C290.954 159.594 303.654 165.913 312.567 178.564C321.48 191.214 325.931 210.049 325.931 235.08V235.092ZM259.555 235.092C259.555 251.652 260.587 263.025 262.665 269.233C264.731 275.442 268.21 278.54 273.078 278.54C277.947 278.54 281.5 275.331 283.541 268.926C285.582 262.52 286.59 251.234 286.59 235.08C286.59 218.925 285.557 207.492 283.491 200.988C281.426 194.485 277.947 191.227 273.078 191.227C268.21 191.227 264.731 194.362 262.665 200.632C260.6 206.902 259.555 218.384 259.555 235.08V235.092Z" fill="#81DFE4" stroke="white" stroke-opacity="0.36" stroke-width="3.27" stroke-miterlimit="10"/>
<path d="M450.189 279.745H434.071V308.083H395.025V279.745H336.652V250.706L397.533 161.696H434.084V250.202H450.201V279.745H450.189ZM395.025 250.214V233.187C395.025 229.978 395.136 225.663 395.382 220.216C395.615 214.782 395.8 211.918 395.935 211.66H394.828C392.554 216.799 389.984 221.606 387.12 226.081L370.904 250.214H395.037H395.025Z" fill="#81DFE4" stroke="white" stroke-opacity="0.36" stroke-width="3.27" stroke-miterlimit="10"/>
<path d="M476.051 191.128V177.556" stroke="white" stroke-opacity="0.36" stroke-width="2.16" stroke-linecap="round" stroke-linejoin="round"/>
<path d="M466.572 195.049L456.982 185.46" stroke="white" stroke-opacity="0.36" stroke-width="2.16" stroke-linecap="round" stroke-linejoin="round"/>
<path d="M462.651 204.53H449.078" stroke="white" stroke-opacity="0.36" stroke-width="2.16" stroke-linecap="round" stroke-linejoin="round"/>
<path d="M466.572 213.995L456.982 223.597" stroke="white" stroke-opacity="0.36" stroke-width="2.16" stroke-linecap="round" stroke-linejoin="round"/>
<path d="M476.051 217.93V231.49" stroke="white" stroke-opacity="0.36" stroke-width="2.16" stroke-linecap="round" stroke-linejoin="round"/>
<path d="M485.52 213.995L495.121 223.597" stroke="white" stroke-opacity="0.36" stroke-width="2.16" stroke-linecap="round" stroke-linejoin="round"/>
<path d="M489.451 204.53H503.024" stroke="white" stroke-opacity="0.36" stroke-width="2.16" stroke-linecap="round" stroke-linejoin="round"/>
<path d="M485.52 195.049L495.121 185.46" stroke="white" stroke-opacity="0.36" stroke-width="2.16" stroke-linecap="round" stroke-linejoin="round"/>
<path d="M50.3945 258.709V248.898" stroke="white" stroke-opacity="0.36" stroke-width="2.16" stroke-linecap="round" stroke-linejoin="round"/>
<path d="M43.5491 261.536L36.6152 254.603" stroke="white" stroke-opacity="0.36" stroke-width="2.16" stroke-linecap="round" stroke-linejoin="round"/>
<path d="M40.7092 268.384H30.8984" stroke="white" stroke-opacity="0.36" stroke-width="2.16" stroke-linecap="round" stroke-linejoin="round"/>
<path d="M43.5491 275.232L36.6152 282.179" stroke="white" stroke-opacity="0.36" stroke-width="2.16" stroke-linecap="round" stroke-linejoin="round"/>
<path d="M50.3945 278.072V287.883" stroke="white" stroke-opacity="0.36" stroke-width="2.16" stroke-linecap="round" stroke-linejoin="round"/>
<path d="M57.2461 275.232L64.18 282.179" stroke="white" stroke-opacity="0.36" stroke-width="2.16" stroke-linecap="round" stroke-linejoin="round"/>
<path d="M60.0859 268.384H69.8967" stroke="white" stroke-opacity="0.36" stroke-width="2.16" stroke-linecap="round" stroke-linejoin="round"/>
<path d="M57.2461 261.536L64.18 254.603" stroke="white" stroke-opacity="0.36" stroke-width="2.16" stroke-linecap="round" stroke-linejoin="round"/>
<path d="M315.852 56.0773V46.2666" stroke="white" stroke-opacity="0.36" stroke-width="2.16" stroke-linecap="round" stroke-linejoin="round"/>
<path d="M309.006 58.9173L302.072 51.9834" stroke="white" stroke-opacity="0.36" stroke-width="2.16" stroke-linecap="round" stroke-linejoin="round"/>
<path d="M306.176 65.7656H296.365" stroke="white" stroke-opacity="0.36" stroke-width="2.16" stroke-linecap="round" stroke-linejoin="round"/>
<path d="M309.006 72.6123L302.072 79.5462" stroke="white" stroke-opacity="0.36" stroke-width="2.16" stroke-linecap="round" stroke-linejoin="round"/>
<path d="M315.852 75.4531V85.2639" stroke="white" stroke-opacity="0.36" stroke-width="2.16" stroke-linecap="round" stroke-linejoin="round"/>
<path d="M322.697 72.6123L329.631 79.5462" stroke="white" stroke-opacity="0.36" stroke-width="2.16" stroke-linecap="round" stroke-linejoin="round"/>
<path d="M325.541 65.7656H335.352" stroke="white" stroke-opacity="0.36" stroke-width="2.16" stroke-linecap="round" stroke-linejoin="round"/>
<path d="M322.697 58.9173L329.631 51.9834" stroke="white" stroke-opacity="0.36" stroke-width="2.16" stroke-linecap="round" stroke-linejoin="round"/>
<path d="M435.655 328.566H99.0898V381.554H435.655V328.566Z" stroke="#81DFE4" stroke-width="2.42" stroke-linecap="round" stroke-linejoin="round"/>
<path d="M125.326 138.387V95.9355H345.994V190.256" stroke="white" stroke-opacity="0.36" stroke-width="2.16" stroke-linecap="round" stroke-linejoin="round"/>
<path d="M268.221 65.7646V118.912H414.546V143.095" stroke="white" stroke-opacity="0.36" stroke-width="2.16" stroke-linecap="round" stroke-linejoin="round"/>
<path d="M130.588 143.649C130.588 146.562 128.228 148.911 125.326 148.911C122.425 148.911 120.064 146.55 120.064 143.649C120.064 140.747 122.425 138.387 125.326 138.387C128.228 138.387 130.588 140.747 130.588 143.649Z" fill="#81DFE4" stroke="white" stroke-opacity="0.36" stroke-width="2.16" stroke-linecap="round" stroke-linejoin="round"/>
<path d="M268.223 65.766C271.129 65.766 273.485 63.4102 273.485 60.5041C273.485 57.598 271.129 55.2422 268.223 55.2422C265.317 55.2422 262.961 57.598 262.961 60.5041C262.961 63.4102 265.317 65.766 268.223 65.766Z" fill="#81DFE4" stroke="white" stroke-opacity="0.36" stroke-width="2.16" stroke-linecap="round" stroke-linejoin="round"/>
<path d="M419.821 148.911C419.821 151.825 417.46 154.173 414.559 154.173C411.657 154.173 409.297 151.813 409.297 148.911C409.297 146.01 411.657 143.649 414.559 143.649C417.46 143.649 419.821 146.01 419.821 148.911Z" fill="#81DFE4" stroke="white" stroke-opacity="0.36" stroke-width="2.16" stroke-linecap="round" stroke-linejoin="round"/>
<path d="M351.256 196.392C351.256 199.305 348.896 201.654 345.994 201.654C343.093 201.654 340.732 199.293 340.732 196.392C340.732 193.49 343.093 191.13 345.994 191.13C348.896 191.13 351.256 193.49 351.256 196.392Z" fill="#81DFE4" stroke="white" stroke-opacity="0.36" stroke-width="2.16" stroke-linecap="round" stroke-linejoin="round"/>
<path d="M91.0132 301.85L78.5469 314.316" stroke="white" stroke-opacity="0.36" stroke-width="2.16" stroke-linecap="round" stroke-linejoin="round"/>
<path d="M78.5469 301.85L91.0132 314.316" stroke="white" stroke-opacity="0.36" stroke-width="2.16" stroke-linecap="round" stroke-linejoin="round"/>
<path d="M97.2352 120.93L84.7812 133.384" stroke="white" stroke-opacity="0.36" stroke-width="2.16" stroke-linecap="round" stroke-linejoin="round"/>
<path d="M84.7812 120.93L97.2352 133.384" stroke="white" stroke-opacity="0.36" stroke-width="2.16" stroke-linecap="round" stroke-linejoin="round"/>
<path d="M501.355 262.164L488.889 274.618" stroke="white" stroke-opacity="0.36" stroke-width="2.16" stroke-linecap="round" stroke-linejoin="round"/>
<path d="M488.889 262.164L501.355 274.618" stroke="white" stroke-opacity="0.36" stroke-width="2.16" stroke-linecap="round" stroke-linejoin="round"/>
<path d="M147.777 49.8198C143.806 49.8198 140.167 51.2459 137.339 53.6186C134.45 44.939 126.287 38.6689 116.636 38.6689C105.83 38.6689 96.8917 46.5249 95.1336 56.8274C93.9903 56.4955 92.7978 56.3111 91.556 56.3111C84.3763 56.3111 78.5488 62.1385 78.5488 69.3183C78.5488 75.9202 83.4788 81.3666 89.8595 82.2026V82.3255H147.777C156.752 82.3255 164.03 75.0474 164.03 66.0726C164.03 57.0979 156.752 49.8198 147.777 49.8198Z" fill="white" fill-opacity="0.36" stroke="white" stroke-opacity="0.36" stroke-width="2.26" stroke-linecap="round" stroke-linejoin="round"/>
<path d="M449.142 132.51C452.031 132.51 454.675 133.543 456.728 135.264C458.818 128.957 464.756 124.408 471.776 124.408C479.619 124.408 486.123 130.113 487.389 137.6C488.213 137.366 489.086 137.231 489.996 137.231C495.208 137.231 499.45 141.46 499.45 146.685C499.45 151.48 495.872 155.439 491.225 156.041V156.127H449.155C442.639 156.127 437.34 150.841 437.34 144.312C437.34 137.784 442.626 132.498 449.155 132.498L449.142 132.51Z" fill="white" fill-opacity="0.36" stroke="white" stroke-opacity="0.36" stroke-width="2.16" stroke-linecap="round" stroke-linejoin="round"/>
<path d="M507.159 355.884C504.737 355.884 502.524 356.757 500.803 358.195C499.045 352.908 494.066 349.085 488.189 349.085C481.612 349.085 476.153 353.867 475.096 360.15C474.408 359.953 473.67 359.842 472.92 359.842C468.543 359.842 464.99 363.395 464.99 367.772C464.99 371.792 467.99 375.112 471.887 375.616V375.69H507.171C512.642 375.69 517.081 371.251 517.081 365.78C517.081 360.31 512.642 355.871 507.171 355.871L507.159 355.884Z" fill="white" fill-opacity="0.36" stroke="white" stroke-opacity="0.36" stroke-width="2.16" stroke-linecap="round" stroke-linejoin="round"/>
<path d="M28.2516 334.984C31.1407 334.984 33.784 336.016 35.8371 337.738C37.9271 331.431 43.8652 326.882 50.8852 326.882C58.7288 326.882 65.2324 332.586 66.4987 340.073C67.3224 339.84 68.1953 339.705 69.1051 339.705C74.3178 339.705 78.5593 343.934 78.5593 349.159C78.5593 353.954 74.9817 357.912 70.3345 358.515V358.601H28.2639C21.748 358.601 16.4492 353.314 16.4492 346.786C16.4492 340.258 21.7357 334.971 28.2639 334.971L28.2516 334.984Z" fill="white" fill-opacity="0.36" stroke="white" stroke-opacity="0.36" stroke-width="2.16" stroke-linecap="round" stroke-linejoin="round"/>
<path d="M164.029 42.0254C164.029 42.0254 238.335 -18.5602 339.295 9.34754C445.344 38.6691 466.576 114.29 466.576 114.29" stroke="white" stroke-opacity="0.36" stroke-width="2.16" stroke-linecap="round" stroke-linejoin="round"/>
<path d="M51.8329 218.103C23.0277 222.565 8.5452 283.704 40.9526 307.973" stroke="white" stroke-opacity="0.36" stroke-width="2.02" stroke-linecap="round" stroke-linejoin="round"/>
<path d="M414.547 394.511C414.547 394.511 463.896 416.087 485.521 385.991" stroke="white" stroke-opacity="0.36" stroke-width="2.16" stroke-linecap="round" stroke-linejoin="round"/>
<path d="M179.791 148.91V117.757" stroke="white" stroke-opacity="0.36" stroke-width="2.16" stroke-linecap="round" stroke-linejoin="round"/>
<path d="M172.264 148.91V133.383" stroke="white" stroke-opacity="0.36" stroke-width="2.16" stroke-linecap="round" stroke-linejoin="round"/>
<path d="M294.322 156.127V133.334" stroke="white" stroke-opacity="0.36" stroke-width="2.16" stroke-linecap="round" stroke-linejoin="round"/>
<path d="M285.775 154.186V144.731" stroke="white" stroke-opacity="0.36" stroke-width="2.16" stroke-linecap="round" stroke-linejoin="round"/>
<path d="M278.191 154.185V138.387" stroke="white" stroke-opacity="0.36" stroke-width="2.16" stroke-linecap="round" stroke-linejoin="round"/>
<path d="M187.018 148.911V133.334" stroke="white" stroke-opacity="0.36" stroke-width="2.16" stroke-linecap="round" stroke-linejoin="round"/>
<path d="M393.574 153.25V146.279" stroke="white" stroke-opacity="0.36" stroke-width="2.16" stroke-linecap="round" stroke-linejoin="round"/>
<path d="M386.049 153.251V136.272" stroke="white" stroke-opacity="0.36" stroke-width="2.16" stroke-linecap="round" stroke-linejoin="round"/>
<path d="M400.801 153.25V141.128" stroke="white" stroke-opacity="0.36" stroke-width="2.16" stroke-linecap="round" stroke-linejoin="round"/>
<path d="M209.215 370V341.8H227.215V344.52H212.455V354.32H226.335V357.08H212.455V367.24H227.215V370H209.215ZM232.731 370V341.8H244.251C247.211 341.8 249.504 342.507 251.131 343.92C252.758 345.307 253.571 347.253 253.571 349.76C253.571 351.413 253.198 352.827 252.451 354C251.731 355.147 250.704 356.027 249.371 356.64C248.064 357.253 246.531 357.56 244.771 357.56L245.491 357.04H246.291C247.384 357.04 248.358 357.307 249.211 357.84C250.091 358.373 250.784 359.267 251.291 360.52L255.291 370H251.651L247.811 360.68C247.358 359.48 246.678 358.707 245.771 358.36C244.864 357.987 243.731 357.8 242.371 357.8H236.051V370H232.731ZM236.051 355.2H243.771C245.904 355.2 247.518 354.747 248.611 353.84C249.731 352.907 250.291 351.573 250.291 349.84C250.291 348.107 249.731 346.787 248.611 345.88C247.518 344.973 245.904 344.52 243.771 344.52H236.051V355.2ZM260.426 370V341.8H271.946C274.906 341.8 277.2 342.507 278.826 343.92C280.453 345.307 281.266 347.253 281.266 349.76C281.266 351.413 280.893 352.827 280.146 354C279.426 355.147 278.4 356.027 277.066 356.64C275.76 357.253 274.226 357.56 272.466 357.56L273.186 357.04H273.986C275.08 357.04 276.053 357.307 276.906 357.84C277.786 358.373 278.48 359.267 278.986 360.52L282.986 370H279.346L275.506 360.68C275.053 359.48 274.373 358.707 273.466 358.36C272.56 357.987 271.426 357.8 270.066 357.8H263.746V370H260.426ZM263.746 355.2H271.466C273.6 355.2 275.213 354.747 276.306 353.84C277.426 352.907 277.986 351.573 277.986 349.84C277.986 348.107 277.426 346.787 276.306 345.88C275.213 344.973 273.6 344.52 271.466 344.52H263.746V355.2ZM286.886 355.88C286.886 352.893 287.393 350.333 288.406 348.2C289.446 346.04 290.926 344.373 292.846 343.2C294.793 342.027 297.126 341.44 299.846 341.44C302.486 341.44 304.78 342.027 306.726 343.2C308.673 344.373 310.166 346.04 311.206 348.2C312.273 350.333 312.806 352.88 312.806 355.84C312.806 358.827 312.273 361.4 311.206 363.56C310.14 365.72 308.633 367.4 306.686 368.6C304.766 369.773 302.486 370.36 299.846 370.36C297.126 370.36 294.806 369.773 292.886 368.6C290.966 367.4 289.486 365.72 288.446 363.56C287.406 361.4 286.886 358.84 286.886 355.88ZM290.366 355.88C290.366 359.507 291.166 362.347 292.766 364.4C294.366 366.427 296.726 367.44 299.846 367.44C302.833 367.44 305.153 366.427 306.806 364.4C308.486 362.347 309.326 359.507 309.326 355.88C309.326 352.227 308.5 349.4 306.846 347.4C305.193 345.373 302.86 344.36 299.846 344.36C296.726 344.36 294.366 345.373 292.766 347.4C291.166 349.4 290.366 352.227 290.366 355.88ZM318.825 370V341.8H330.345C333.305 341.8 335.598 342.507 337.225 343.92C338.851 345.307 339.665 347.253 339.665 349.76C339.665 351.413 339.291 352.827 338.545 354C337.825 355.147 336.798 356.027 335.465 356.64C334.158 357.253 332.625 357.56 330.865 357.56L331.585 357.04H332.385C333.478 357.04 334.451 357.307 335.305 357.84C336.185 358.373 336.878 359.267 337.385 360.52L341.385 370H337.745L333.905 360.68C333.451 359.48 332.771 358.707 331.865 358.36C330.958 357.987 329.825 357.8 328.465 357.8H322.145V370H318.825ZM322.145 355.2H329.865C331.998 355.2 333.611 354.747 334.705 353.84C335.825 352.907 336.385 351.573 336.385 349.84C336.385 348.107 335.825 346.787 334.705 345.88C333.611 344.973 331.998 344.52 329.865 344.52H322.145V355.2Z" fill="white"/>
</svg>
