<svg width="160" height="161" viewBox="0 0 160 161" fill="none" xmlns="http://www.w3.org/2000/svg">
<path fill-rule="evenodd" clip-rule="evenodd" d="M160 80.6641C160 124.847 124.183 160.664 80 160.664C35.8172 160.664 0 124.847 0 80.6641C0 36.4813 35.8172 0.664062 80 0.664062C124.183 0.664062 160 36.4813 160 80.6641ZM33 88.6854V90.8187H46.885C51.717 90.8187 55.7121 90.2214 59.2741 89.0353C62.8287 87.8548 65.8019 86.134 68.6641 84.0519C71.2374 82.1831 73.8108 79.9474 76.6322 77.4927L77.4949 76.7446C80.694 73.9713 84.3189 70.8624 88.8658 67.4548C93.3423 64.0984 99.5332 62.3747 105.976 62.3747H127.418V29.6641H113.533C108.701 29.6641 104.706 30.2614 101.144 31.4475C97.5893 32.6279 94.616 34.3488 91.7539 36.4281C89.1805 38.2997 86.6072 40.5354 83.7858 42.9901L82.923 43.7382C79.7239 46.5115 76.099 49.6204 71.5521 53.028C67.0756 56.3844 60.8848 58.1081 54.4421 58.1081H33V88.6854ZM33 130.7V128.566V97.9889H54.4421C60.8848 97.9889 67.0756 96.2652 71.5521 92.9088C76.099 89.5013 79.7239 86.3923 82.923 83.619L83.7858 82.8709C86.6072 80.4162 89.1805 78.1805 91.7539 76.3089C94.616 74.2297 97.5893 72.5088 101.144 71.3284C104.706 70.1422 108.701 69.5449 113.533 69.5449H127.418V102.256H105.976C99.5332 102.256 93.3423 103.979 88.8658 107.336C84.3189 110.743 80.694 113.852 77.4949 116.625L76.6322 117.374C73.8108 119.828 71.2374 122.064 68.6641 123.933C65.8019 126.015 62.8287 127.736 59.2741 128.916C55.7121 130.102 51.717 130.7 46.885 130.7H33Z" fill="#272C39"/>
</svg>
