<svg width="39" height="37" viewBox="0 0 39 37" fill="none" xmlns="http://www.w3.org/2000/svg">
<g id="card-tick-1 1">
<path id="Vector" d="M22.1624 14.5391H4.0499C3.40415 14.5391 2.86865 14.0291 2.86865 13.4141C2.86865 12.7991 3.40415 12.2891 4.0499 12.2891H22.1624C22.8082 12.2891 23.3437 12.7991 23.3437 13.4141C23.3437 14.0291 22.8082 14.5391 22.1624 14.5391Z" fill="#222631"/>
<path id="Vector_2" d="M13.5 26.5391H10.35C9.7042 26.5391 9.1687 26.0291 9.1687 25.4141C9.1687 24.7991 9.7042 24.2891 10.35 24.2891H13.5C14.1457 24.2891 14.6812 24.7991 14.6812 25.4141C14.6812 26.0291 14.1457 26.5391 13.5 26.5391Z" fill="#222631"/>
<path id="Vector_3" d="M23.7374 26.5391H17.4374C16.7916 26.5391 16.2561 26.0291 16.2561 25.4141C16.2561 24.7991 16.7916 24.2891 17.4374 24.2891H23.7374C24.3831 24.2891 24.9186 24.7991 24.9186 25.4141C24.9186 26.0291 24.3831 26.5391 23.7374 26.5391Z" fill="#222631"/>
<path id="Vector_4" d="M28.5569 32.5391H11.0429C4.7744 32.5391 2.86865 30.7391 2.86865 24.8291V12.4991C2.86865 6.58906 4.7744 4.78906 11.0429 4.78906H22.1624C22.8082 4.78906 23.3437 5.29906 23.3437 5.91406C23.3437 6.52906 22.8082 7.03906 22.1624 7.03906H11.0429C6.0974 7.03906 5.23115 7.84906 5.23115 12.4991V24.8141C5.23115 29.4641 6.0974 30.2741 11.0429 30.2741H28.5412C33.4867 30.2741 34.3529 29.4641 34.3529 24.8141V17.1941C34.3529 16.5791 34.8884 16.0691 35.5342 16.0691C36.1799 16.0691 36.7154 16.5791 36.7154 17.1941V24.8141C36.7312 30.7391 34.8254 32.5391 28.5569 32.5391Z" fill="#222631"/>
<path id="Vector_5" d="M29.249 13.0402C28.9498 13.0402 28.6505 12.9352 28.4143 12.7102L26.0518 10.4602C25.595 10.0252 25.595 9.30519 26.0518 8.87019C26.5085 8.43519 27.2645 8.43519 27.7213 8.87019L29.249 10.3252L34.7143 5.1202C35.171 4.6852 35.927 4.6852 36.3838 5.1202C36.8405 5.5552 36.8405 6.2752 36.3838 6.7102L30.0838 12.7102C29.8475 12.9352 29.5483 13.0402 29.249 13.0402Z" fill="#222631"/>
</g>
</svg>
