<svg width="100" height="101" viewBox="0 0 100 101" fill="none" xmlns="http://www.w3.org/2000/svg">
  <rect y="0.976562" width="100" height="100" rx="50" fill="#212121" />
  <path
    d="M19.7469 56.3924V57.7629H28.6668C31.7709 57.7629 34.3374 57.3791 36.6257 56.6172C38.9092 55.8588 40.8192 54.7533 42.6579 53.4158C44.311 52.2153 45.9642 50.779 47.7767 49.2021L48.3309 48.7215C50.386 46.9399 52.7147 44.9427 55.6356 42.7537C58.5114 40.5975 62.4885 39.4902 66.6273 39.4902H80.4019V18.4766H71.4821C68.3779 18.4766 65.8114 18.8603 63.5232 19.6223C61.2397 20.3806 59.3297 21.4861 57.491 22.8218C55.8378 24.0242 54.1847 25.4604 52.3722 27.0373L51.818 27.5179C49.7628 29.2995 47.4341 31.2967 44.5132 33.4858C41.6374 35.6419 37.6604 36.7493 33.5216 36.7493H19.7469V56.3924Z"
    fill="#15BBC6" />
  <path
    d="M19.7468 82.0121V83.3826H28.6667C31.7708 83.3826 34.3373 82.9988 36.6256 82.2369C38.909 81.4785 40.8191 80.373 42.6577 79.0355C44.3109 77.835 45.964 76.3987 47.7765 74.8218L48.3308 74.3412C50.3859 72.5596 52.7146 70.5624 55.6355 68.3734C58.5113 66.2172 62.4883 65.1099 66.6272 65.1099H80.4018V44.0963H71.4819C68.3778 44.0963 65.8113 44.48 63.523 45.242C61.2396 46.0003 59.3295 47.1058 57.4909 48.4415C55.8377 49.6438 54.1846 51.0801 52.3721 52.657L51.8178 53.1376C49.7627 54.9192 47.434 56.9164 44.5131 59.1054C41.6373 61.2616 37.6603 62.3689 33.5214 62.3689H19.7468V82.0121Z"
    fill="#81DFE4" />
</svg>