<svg width="196" height="209" viewBox="0 0 196 209" fill="none" xmlns="http://www.w3.org/2000/svg">
  <path
    d="M0.5 121.896V126.302H29.1765C39.1559 126.302 47.4071 125.068 54.7635 122.618C62.1047 120.181 68.2453 116.627 74.1565 112.326C79.4712 108.467 84.7859 103.849 90.6129 98.7798L92.3947 97.2348C99.0018 91.5071 106.488 85.0863 115.879 78.0486C125.124 71.1167 137.91 67.5568 151.216 67.5568H195.5V0H166.824C156.844 0 148.593 1.23364 141.236 3.68331C133.895 6.12123 127.755 9.6753 121.844 13.9696C116.529 17.835 111.214 22.4524 105.387 27.522L103.605 29.067C96.9982 34.7947 89.5118 41.2155 80.1212 48.2532C70.8759 55.1851 58.09 58.745 44.7841 58.745H0.5V121.896Z"
    fill="#15BBC6" />
  <path
    d="M0.5 204.258V208.664H29.1765C39.1559 208.664 47.4071 207.43 54.7635 204.981C62.1047 202.543 68.2453 198.989 74.1565 194.689C79.4712 190.829 84.7859 186.212 90.6129 181.142L92.3947 179.597C99.0018 173.869 106.488 167.449 115.879 160.411C125.124 153.479 137.91 149.919 151.216 149.919H195.5V82.3623H166.824C156.844 82.3623 148.593 83.5959 141.236 86.0456C133.895 88.4835 127.755 92.0376 121.844 96.3319C116.529 100.197 111.214 104.815 105.387 109.884L103.605 111.429C96.9982 117.157 89.5118 123.578 80.1212 130.615C70.8759 137.547 58.09 141.107 44.7841 141.107H0.5V204.258Z"
    fill="#81DFE4" />
</svg>