<svg width="75" height="76" viewBox="0 0 75 76" fill="none" xmlns="http://www.w3.org/2000/svg">
<path d="M37.5 0.5C38.4946 0.5 39.4484 0.895088 40.1516 1.59835C40.8549 2.30161 41.25 3.25544 41.25 4.25V15.5C41.25 16.4946 40.8549 17.4484 40.1516 18.1516C39.4484 18.8549 38.4946 19.25 37.5 19.25C36.5054 19.25 35.5516 18.8549 34.8484 18.1516C34.1451 17.4484 33.75 16.4946 33.75 15.5V4.25C33.75 3.25544 34.1451 2.30161 34.8484 1.59835C35.5516 0.895088 36.5054 0.5 37.5 0.5ZM37.5 56.75C38.4946 56.75 39.4484 57.1451 40.1516 57.8483C40.8549 58.5516 41.25 59.5054 41.25 60.5V71.75C41.25 72.7446 40.8549 73.6984 40.1516 74.4017C39.4484 75.1049 38.4946 75.5 37.5 75.5C36.5054 75.5 35.5516 75.1049 34.8484 74.4017C34.1451 73.6984 33.75 72.7446 33.75 71.75V60.5C33.75 59.5054 34.1451 58.5516 34.8484 57.8483C35.5516 57.1451 36.5054 56.75 37.5 56.75ZM75 38C75 38.9946 74.6049 39.9484 73.9017 40.6516C73.1984 41.3549 72.2446 41.75 71.25 41.75H60C59.0054 41.75 58.0516 41.3549 57.3483 40.6516C56.6451 39.9484 56.25 38.9946 56.25 38C56.25 37.0054 56.6451 36.0516 57.3483 35.3484C58.0516 34.6451 59.0054 34.25 60 34.25H71.25C72.2446 34.25 73.1984 34.6451 73.9017 35.3484C74.6049 36.0516 75 37.0054 75 38ZM18.75 38C18.75 38.9946 18.3549 39.9484 17.6516 40.6516C16.9484 41.3549 15.9946 41.75 15 41.75H3.75C2.75544 41.75 1.80161 41.3549 1.09835 40.6516C0.395088 39.9484 0 38.9946 0 38C0 37.0054 0.395088 36.0516 1.09835 35.3484C1.80161 34.6451 2.75544 34.25 3.75 34.25H15C15.9946 34.25 16.9484 34.6451 17.6516 35.3484C18.3549 36.0516 18.75 37.0054 18.75 38ZM64.0163 64.5163C63.313 65.2193 62.3594 65.6142 61.365 65.6142C60.3706 65.6142 59.417 65.2193 58.7137 64.5163L50.76 56.5625C50.0769 55.8552 49.6989 54.908 49.7075 53.9247C49.716 52.9415 50.1104 52.001 50.8057 51.3057C51.501 50.6104 52.4415 50.216 53.4247 50.2075C54.408 50.1989 55.3552 50.5769 56.0625 51.26L64.0163 59.21C64.3649 59.5583 64.6415 59.9719 64.8302 60.4271C65.0189 60.8823 65.1161 61.3703 65.1161 61.8631C65.1161 62.3559 65.0189 62.8439 64.8302 63.2992C64.6415 63.7544 64.3649 64.168 64.0163 64.5163ZM24.24 24.74C23.5368 25.443 22.5831 25.8379 21.5887 25.8379C20.5944 25.8379 19.6407 25.443 18.9375 24.74L10.9875 16.79C10.2838 16.0868 9.88834 15.133 9.88799 14.1382C9.88764 13.1434 10.2825 12.1893 10.9856 11.4856C11.6888 10.782 12.6427 10.3865 13.6374 10.3861C14.6322 10.3858 15.5863 10.7806 16.29 11.4837L24.24 19.4375C24.943 20.1407 25.3379 21.0944 25.3379 22.0887C25.3379 23.0831 24.943 24.0368 24.24 24.74ZM10.9875 64.5163C10.2845 63.813 9.88955 62.8594 9.88955 61.865C9.88955 60.8706 10.2845 59.917 10.9875 59.2137L18.9412 51.26C19.2872 50.9018 19.701 50.6162 20.1585 50.4196C20.616 50.2231 21.1081 50.1196 21.606 50.1153C22.1039 50.111 22.5977 50.2059 23.0586 50.3944C23.5194 50.583 23.9381 50.8614 24.2902 51.2135C24.6423 51.5656 24.9208 51.9843 25.1093 52.4452C25.2979 52.906 25.3928 53.3998 25.3884 53.8978C25.3841 54.3957 25.2807 54.8878 25.0841 55.3453C24.8876 55.8028 24.6019 56.2166 24.2438 56.5625L16.2937 64.5163C15.9455 64.8649 15.5319 65.1415 15.0767 65.3302C14.6214 65.5189 14.1334 65.6161 13.6406 65.6161C13.1478 65.6161 12.6598 65.5189 12.2046 65.3302C11.7494 65.1415 11.3358 64.8649 10.9875 64.5163ZM50.76 24.74C50.057 24.0368 49.6621 23.0831 49.6621 22.0887C49.6621 21.0944 50.057 20.1407 50.76 19.4375L58.71 11.4837C59.4132 10.7801 60.367 10.3846 61.3618 10.3842C62.3566 10.3839 63.3107 10.7787 64.0144 11.4819C64.718 12.185 65.1135 13.1389 65.1139 14.1337C65.1142 15.1284 64.7194 16.0826 64.0163 16.7862L56.0625 24.74C55.3593 25.443 54.4056 25.8379 53.4113 25.8379C52.4169 25.8379 51.4632 25.443 50.76 24.74Z" fill="#15BBC6"/>
</svg>
