<svg width="94" height="50" viewBox="0 0 94 50" fill="none" xmlns="http://www.w3.org/2000/svg">
<path d="M44.2843 23.4794C44.0536 23.3668 43.8175 23.2434 43.5706 23.1844C43.2969 23.1147 43.2379 22.9753 43.2594 22.7071C43.3667 21.3343 43.1037 20.0418 42.3149 18.8834C41.4509 17.6232 40.2703 16.7276 38.8858 16.1377C37.3403 15.4834 35.7572 14.9203 34.1902 14.325C34.0668 14.2768 33.9702 14.2607 33.9648 14.0891C33.9004 11.9493 33.4765 9.87388 32.7896 7.85209C32.2261 6.20034 31.4749 4.64511 30.2943 3.33658C28.7702 1.64192 26.892 0.799958 24.5952 1.0252C24.2034 1.06274 23.8493 1.00911 23.479 0.896488C22.0569 0.462098 20.6348 0.456736 19.3362 1.25044C17.4365 2.40881 16.4974 4.141 16.4276 6.36658C16.3686 8.23285 16.814 9.97577 17.635 11.6383C18.6063 13.6118 19.9694 15.3118 21.4666 16.9046C21.8798 17.3443 22.3038 17.768 22.6955 18.1648C22.717 18.1916 22.7223 18.2292 22.7009 18.256C21.8583 19.3929 21.0212 20.5084 20.2001 21.6292C20.0713 21.8062 19.9587 21.8276 19.7601 21.8062C18.5741 21.6614 17.3882 21.4898 16.1915 21.4093C15.1397 21.3396 14.0825 21.3772 13.0253 21.3718C12.8643 21.3718 12.7677 21.3503 12.7302 21.1573C12.3492 19.3661 11.5496 17.7841 10.2509 16.4916C9.30644 15.5531 8.31366 14.6522 6.89695 14.4806C6.82182 14.4698 6.72522 14.4108 6.68229 14.3465C6.49447 14.0569 6.29592 13.7727 6.13492 13.467C5.36754 12.0029 4.7504 10.3994 3.53761 9.26251C3.28002 9.02119 2.81315 8.60288 2.33555 8.53317C1.16031 8.36692 0.478787 9.58428 0.688075 10.7641C0.822234 11.5149 1.01542 12.2657 1.27837 12.9843C1.65938 14.0301 2.13162 15.0437 2.5663 16.0733C2.63606 16.2396 2.65216 16.379 2.5663 16.5506C2.36238 16.9635 2.13162 17.3818 2.01356 17.827C1.55206 19.5753 1.63255 21.2914 2.40531 22.9485C2.98487 24.1873 3.82739 25.233 4.72357 26.2466C4.97042 26.5255 5.22264 26.799 5.4695 27.0779C5.49096 27.0993 5.49096 27.1368 5.47486 27.1583C5.46413 27.1744 5.4534 27.1905 5.44267 27.2012C5.39437 27.2548 5.3407 27.3031 5.28704 27.3514C2.76485 29.8451 0.967125 32.7517 0.2534 36.2644C-0.0256508 37.6319 -0.106146 39.0048 0.215835 40.3831C0.88663 43.2361 3.16733 44.8825 5.89344 45.1613C6.91841 45.2686 7.92729 45.1077 8.93079 44.9307C10.6051 44.6358 11.9896 43.8314 13.0897 42.5336C13.1488 42.4638 13.2668 42.4209 13.358 42.4156C14.2864 42.3619 15.1128 42.0509 15.7622 41.3805C16.0949 41.0373 16.3686 40.6351 16.6637 40.249C16.6959 40.2061 16.771 40.2168 16.7871 40.2704C16.7925 40.2865 16.7979 40.3026 16.8032 40.3187C17.1789 41.654 17.6941 42.9358 18.4024 44.1317C19.0625 45.2418 19.9157 46.1856 20.8709 47.0437C23.1141 49.0655 25.6899 49.6608 28.5556 48.7276C29.924 48.2825 30.9382 47.2743 31.7754 46.1159C31.8988 45.9443 32.0437 45.8961 32.2315 45.8478C32.7252 45.7298 33.2457 45.6494 33.6858 45.4241C35.0327 44.7377 35.8699 43.5739 36.3797 42.185C36.8627 40.855 36.7285 39.4928 36.4173 38.1468C35.9558 36.1571 34.9683 34.4249 33.7073 32.8483C32.5857 31.4486 31.4105 30.0864 30.2352 28.676C30.2138 28.6545 30.2138 28.6224 30.2299 28.5955C30.5035 28.1397 30.8094 27.6302 31.1207 27.11C31.1368 27.0779 31.1797 27.0671 31.2119 27.0832C31.2763 27.1154 31.3353 27.1369 31.389 27.1637C32.532 27.6624 33.6536 28.2201 34.8288 28.6384C36.3529 29.1801 37.9037 29.1533 39.3902 28.4239C39.7283 28.2577 40.0449 28.0593 40.3723 27.8716C40.3991 27.8555 40.4259 27.8608 40.4474 27.8769C40.7372 28.0968 41.027 28.3113 41.3114 28.5312C41.6387 28.7779 42.0519 28.8905 42.4598 28.8261C43.0393 28.735 43.5438 28.4722 43.9409 28.0217C44.7512 27.0886 45.0839 25.9785 45.1 24.7611C45.0947 24.1658 44.8156 23.7368 44.2843 23.4794Z" fill="white"/>
<path d="M49.2872 31.0605V18.9604H52.6957V28.0951H57.7403L57.5358 31.0605H49.2872ZM66.5983 18.9604H69.9386L69.9727 25.5899C69.984 26.7033 69.7568 27.6861 69.291 28.5383C68.8251 29.3904 68.1718 30.055 67.3311 30.5322C66.4903 31.0094 65.5132 31.248 64.3998 31.248C62.5819 31.248 61.1787 30.7935 60.1903 29.8846C59.2132 28.9757 58.7246 27.6293 58.7246 25.8455V18.9604H62.1331V25.6751C62.1331 26.5954 62.3433 27.2544 62.7637 27.652C63.1954 28.0497 63.7465 28.2485 64.4168 28.2485C65.1212 28.2485 65.6666 28.0327 66.0529 27.6009C66.4506 27.1692 66.6437 26.4591 66.6323 25.4706L66.5983 18.9604ZM73.7632 31.0605H70.082L73.9677 24.9764L70.2524 18.9604H74.0529L75.9105 22.1303L77.7511 18.9604H81.3641L77.6489 24.7719L81.5005 31.0605H77.6318L75.7571 27.7543L73.7632 31.0605ZM93.2978 18.9604L89.2416 25.6581V31.0605H85.8331V25.8285L81.5725 18.9604H85.373L87.6567 22.7268L89.7529 18.9604H93.2978Z" fill="white"/>
</svg>
