<svg width="177" height="49" viewBox="0 0 177 49" fill="none" xmlns="http://www.w3.org/2000/svg">
<path d="M1.5394 36.5281C1.5394 36.357 1.5394 36.1636 1.5394 35.9701C1.5394 31.0289 1.54131 26.0878 1.53274 21.1476C1.53274 20.9201 1.43284 20.6917 1.35767 20.3699C1.96663 19.9917 2.67836 19.5465 3.3939 19.1062C9.26852 15.489 15.146 11.8767 21.013 8.24783C21.3746 8.02425 21.6172 8.03203 21.9788 8.25561C26.0513 10.785 30.1332 13.2998 34.2276 15.7933C34.6653 16.0596 34.8261 16.3386 34.827 16.8567C34.8337 19.0265 34.8898 21.1962 34.927 23.3669C34.9298 23.5234 34.927 23.6799 34.927 23.9064C34.7233 23.78 34.5768 23.6964 34.4379 23.6011C30.2522 20.7646 26.0655 17.9309 21.8865 15.0836C21.5953 14.8853 21.3908 14.8737 21.0863 15.0583C16.5847 17.8036 12.0755 20.5351 7.56722 23.2687C7.04579 23.5846 6.75463 23.9744 6.7651 24.6666C6.80602 27.3389 6.78794 30.0121 6.77461 32.6854C6.77271 33.047 6.8612 33.2638 7.18472 33.4621C11.9166 36.3599 16.6418 39.2684 21.3556 42.1945C21.74 42.4336 21.9988 42.3996 22.3642 42.174C28.7869 38.2021 35.2181 34.2437 41.6484 30.2843C41.7921 30.1959 41.9434 30.121 42.1518 30.0063C42.1518 31.026 42.1518 31.9758 42.1518 32.9255C42.1518 33.9627 42.1423 34.999 42.1584 36.0362C42.1632 36.3288 42.0776 36.497 41.8245 36.6525C35.9993 40.2269 30.1799 43.8111 24.3604 47.3942C23.6278 47.8453 22.8894 48.2866 22.1662 48.7542C21.9312 48.9068 21.7571 48.898 21.5221 48.7542C15.2183 44.8648 8.91171 40.9823 2.60224 37.1036C2.27968 36.9053 1.93523 36.7429 1.53845 36.53L1.5394 36.5281Z" fill="white"/>
<path d="M1.35913 19.7284C1.35913 17.5942 1.35151 15.5524 1.37436 13.5116C1.37626 13.3609 1.5704 13.1644 1.72267 13.07C5.0136 11.0282 8.3112 8.99716 11.6088 6.96609C14.8245 4.98462 18.0441 3.00996 21.2532 1.0178C21.552 0.832003 21.7585 0.836867 22.0583 1.02266C28.4003 4.94474 34.7509 8.8532 41.0996 12.7646C41.1672 12.8064 41.2329 12.8716 41.3052 12.8832C41.9885 12.9922 41.9571 13.4863 41.9562 14.0262C41.9438 18.8734 41.9457 23.7205 41.9562 28.5667C41.9562 28.806 42.0742 29.0453 42.1589 29.3692C41.4318 29.8186 40.5943 30.3371 39.7559 30.8536C34.0029 34.3973 28.2462 37.9361 22.4999 41.4924C22.124 41.7249 21.8689 41.7162 21.4911 41.4817C17.3513 38.9059 13.1952 36.3574 9.05161 33.7884C8.89458 33.6911 8.71852 33.4654 8.71376 33.2942C8.64714 30.945 8.60812 28.5959 8.5653 26.2457C8.56339 26.1407 8.58909 26.0337 8.61003 25.8664C8.79846 25.9841 8.94502 26.0677 9.08397 26.1631C13.2581 28.9908 17.4341 31.8147 21.5996 34.6551C21.9136 34.8691 22.1249 34.8652 22.4437 34.6706C26.8776 31.9645 31.3182 29.268 35.7664 26.5862C36.4231 26.1903 36.74 25.7282 36.72 24.8849C36.6572 22.277 36.6905 19.6661 36.7048 17.0563C36.7067 16.6798 36.6143 16.4513 36.2784 16.246C31.5352 13.3443 26.8006 10.4281 22.0735 7.50109C21.7519 7.30168 21.533 7.3153 21.2218 7.5079C14.7817 11.4874 8.33499 15.4552 1.88827 19.4239C1.74266 19.5134 1.59229 19.5942 1.35913 19.7284Z" fill="white"/>
<path d="M68.7828 21.5865C68.7828 22.5231 68.5673 23.3829 68.1363 24.1659C67.7053 24.9336 67.0434 25.5554 66.1507 26.0314C65.2579 26.5074 64.1496 26.7453 62.8258 26.7453H60.3784V32.5491H56.4302V16.3816H62.8258C64.1188 16.3816 65.2117 16.6042 66.1045 17.0495C66.9973 17.4947 67.6668 18.1089 68.1132 18.8919C68.5596 19.675 68.7828 20.5732 68.7828 21.5865ZM62.5257 23.6132C63.2799 23.6132 63.8418 23.4366 64.2112 23.0835C64.5806 22.7304 64.7653 22.2314 64.7653 21.5865C64.7653 20.9416 64.5806 20.4426 64.2112 20.0895C63.8418 19.7364 63.2799 19.5598 62.5257 19.5598H60.3784V23.6132H62.5257Z" fill="white"/>
<path d="M70.2841 26.1005C70.2841 24.7801 70.5304 23.6209 71.023 22.6229C71.5309 21.6249 72.2159 20.8572 73.0779 20.3198C73.9399 19.7824 74.9019 19.5137 75.964 19.5137C76.8722 19.5137 77.6649 19.698 78.3422 20.0665C79.0349 20.435 79.5659 20.9186 79.9354 21.5174V19.698H83.8836V32.5491H79.9354V30.7296C79.5505 31.3284 79.0118 31.8121 78.3191 32.1806C77.6418 32.5491 76.8491 32.7333 75.941 32.7333C74.8943 32.7333 73.9399 32.4646 73.0779 31.9272C72.2159 31.3745 71.5309 30.5991 71.023 29.6011C70.5304 28.5878 70.2841 27.4209 70.2841 26.1005ZM79.9354 26.1235C79.9354 25.1409 79.6583 24.3655 79.1042 23.7974C78.5654 23.2293 77.9035 22.9453 77.1185 22.9453C76.3335 22.9453 75.6639 23.2293 75.1097 23.7974C74.571 24.3502 74.3016 25.1179 74.3016 26.1005C74.3016 27.0831 74.571 27.8662 75.1097 28.4496C75.6639 29.0177 76.3335 29.3017 77.1185 29.3017C77.9035 29.3017 78.5654 29.0177 79.1042 28.4496C79.6583 27.8815 79.9354 27.1062 79.9354 26.1235Z" fill="white"/>
<path d="M90.9191 15.5064V32.5491H86.9708V15.5064H90.9191Z" fill="white"/>
<path d="M95.9968 18.3622C95.3042 18.3622 94.7346 18.1626 94.2883 17.7634C93.8573 17.3489 93.6418 16.8422 93.6418 16.2434C93.6418 15.6293 93.8573 15.1226 94.2883 14.7234C94.7346 14.3088 95.3042 14.1016 95.9968 14.1016C96.6741 14.1016 97.2283 14.3088 97.6593 14.7234C98.1056 15.1226 98.3288 15.6293 98.3288 16.2434C98.3288 16.8422 98.1056 17.3489 97.6593 17.7634C97.2283 18.1626 96.6741 18.3622 95.9968 18.3622ZM97.9594 19.698V32.5491H94.0112V19.698H97.9594Z" fill="white"/>
<path d="M126.17 16.4507L121.599 32.5491H119.798L115.734 18.8228L111.578 32.5491L109.823 32.5721L105.344 16.4507H107.076L110.77 30.5684L114.903 16.4507H116.704L120.721 30.5684L124.439 16.4507H126.17Z" fill="white"/>
<path d="M128.135 26.2387C128.135 24.949 128.389 23.8205 128.897 22.8532C129.42 21.8705 130.136 21.1182 131.044 20.5962C131.968 20.0588 133.007 19.7901 134.161 19.7901C135.362 19.7901 136.393 20.0665 137.255 20.6192C138.132 21.1719 138.763 21.8782 139.148 22.738V19.9744H140.765V32.5491H139.148V29.7624C138.748 30.6222 138.109 31.3361 137.232 31.9042C136.37 32.4569 135.339 32.7333 134.138 32.7333C132.999 32.7333 131.968 32.4646 131.044 31.9272C130.136 31.3898 129.42 30.6298 128.897 29.6472C128.389 28.6646 128.135 27.5284 128.135 26.2387ZM139.148 26.2617C139.148 25.2484 138.94 24.3578 138.525 23.5902C138.109 22.8225 137.54 22.2314 136.816 21.8168C136.108 21.4023 135.323 21.195 134.461 21.195C133.568 21.195 132.768 21.3946 132.06 21.7938C131.352 22.193 130.79 22.7764 130.374 23.5441C129.974 24.2964 129.774 25.1946 129.774 26.2387C129.774 27.2674 129.974 28.1732 130.374 28.9563C130.79 29.724 131.352 30.3151 132.06 30.7296C132.768 31.1288 133.568 31.3284 134.461 31.3284C135.323 31.3284 136.108 31.1212 136.816 30.7066C137.54 30.2921 138.109 29.7009 138.525 28.9333C138.94 28.1656 139.148 27.2751 139.148 26.2617Z" fill="white"/>
<path d="M146.301 15.5064V32.5491H144.685V15.5064H146.301Z" fill="white"/>
<path d="M151.808 15.5064V32.5491H150.192V15.5064H151.808Z" fill="white"/>
<path d="M167.105 25.6168C167.105 26.1696 167.09 26.5918 167.059 26.8835H156.6C156.646 27.8355 156.877 28.6492 157.292 29.3248C157.708 30.0003 158.255 30.5147 158.932 30.8678C159.609 31.2056 160.348 31.3745 161.148 31.3745C162.195 31.3745 163.072 31.1212 163.78 30.6145C164.504 30.1078 164.981 29.4246 165.212 28.5648H166.921C166.613 29.7931 165.951 30.7987 164.935 31.5818C163.934 32.3495 162.672 32.7333 161.148 32.7333C159.963 32.7333 158.901 32.4723 157.962 31.9503C157.023 31.4129 156.284 30.6605 155.746 29.6933C155.222 28.7106 154.96 27.5668 154.96 26.2617C154.96 24.9566 155.222 23.8128 155.746 22.8301C156.269 21.8475 157 21.0952 157.939 20.5732C158.878 20.0511 159.948 19.7901 161.148 19.7901C162.349 19.7901 163.396 20.0511 164.288 20.5732C165.197 21.0952 165.889 21.8015 166.366 22.692C166.859 23.5671 167.105 24.5421 167.105 25.6168ZM165.466 25.5708C165.481 24.6342 165.289 23.8358 164.889 23.1756C164.504 22.5154 163.973 22.0164 163.296 21.6786C162.618 21.3408 161.88 21.1719 161.079 21.1719C159.878 21.1719 158.855 21.5558 158.008 22.3235C157.162 23.0912 156.692 24.1736 156.6 25.5708H165.466Z" fill="white"/>
<path d="M172.394 21.3332V29.1405C172.394 29.9082 172.541 30.4379 172.833 30.7296C173.125 31.0214 173.641 31.1672 174.38 31.1672H175.858V32.5491H174.126C172.987 32.5491 172.14 32.288 171.586 31.766C171.032 31.2286 170.755 30.3535 170.755 29.1405V21.3332H169V19.9744H170.755V16.8192H172.394V19.9744H175.858V21.3332H172.394Z" fill="white"/>
</svg>
