<svg width="141" height="48" viewBox="0 0 141 48" fill="none" xmlns="http://www.w3.org/2000/svg">
  <mask id="mask0_166_10804" style="mask-type:luminance" maskUnits="userSpaceOnUse" x="9" y="3" width="40" height="41">
    <path
      d="M28.6643 43.1879C39.5125 43.1879 48.3067 34.3979 48.3067 23.5549C48.3067 12.7119 39.5125 3.92188 28.6643 3.92188C17.8162 3.92188 9.02197 12.7119 9.02197 23.5549C9.02197 34.3979 17.8162 43.1879 28.6643 43.1879Z"
      fill="white" />
  </mask>
  <g mask="url(#mask0_166_10804)">
    <path
      d="M31.1952 28.5932C33.1589 29.7249 35.6446 31.0716 35.9947 33.6728C38.5931 32.9811 42.4528 32.1665 41.4638 29.8457C40.2435 24.547 37.4055 19.844 35.3129 14.8421C35.1655 14.4921 35.0467 14.0746 34.9771 13.698C34.7252 12.3637 35.2085 11.0804 35.3375 9.71332C34.8317 9.78699 32.6122 9.78699 31.3406 11.3404C31.3017 11.3895 31.058 9.78699 31.9057 8.09446C30.495 7.67081 19.4811 12.4701 15.7975 21.999C15.7094 19.8051 16.5981 16.0516 19.6162 11.8766C24.2888 5.41546 31.8873 4.55999 36.7872 5.69176C35.9436 5.32337 35.8125 5.08596 33.8632 4.4024C32.7207 4.00127 31.056 3.67791 30.3127 3.67586C16.9052 3.64721 8.21328 11.5614 7.50072 25.5396C6.96017 36.1615 18.4798 43.302 30.5707 43.3327C34.7539 43.343 37.4977 41.4642 39.7623 39.7533C27.4072 37.987 21.6761 33.945 27.3827 23.1717C26.7459 24.3731 27.5465 26.4934 31.1952 28.5952V28.5932ZM33.5315 16.9562C33.5397 16.9746 33.5499 16.9931 33.5581 17.0094C33.5643 16.9992 33.5725 16.991 33.5786 16.9808C34.6515 19.1686 35.6344 21.1722 36.6172 23.1758C36.2568 23.0489 35.9169 22.8954 35.6037 22.7215C33.1281 21.3871 32.0962 18.7879 33.5315 16.9542V16.9562Z"
      fill="white" />
  </g>
  <path
    d="M25.9786 3.67742C24.1916 3.9005 22.4763 4.3569 20.8654 5.01796C18.665 3.81863 16.2803 2.91608 13.7646 2.36144C14.9703 1.76997 17.8523 1.50391 19.2586 1.50391C22.2634 1.96644 23.3852 2.31437 25.9786 3.67742Z"
    fill="white" />
  <path
    d="M19.928 5.42689C19.8666 5.45554 19.8052 5.48624 19.7418 5.51489C18.3888 6.16981 17.1197 6.97004 15.957 7.89921C13.7136 7.29546 11.3535 6.97414 8.91768 6.97414C8.37115 6.97414 7.82667 6.99051 7.28833 7.02325C8.89721 5.3921 13.2694 3.62382 15.2652 3.52148C16.9027 4.03314 17.703 4.25827 19.928 5.42689Z"
    fill="white" />
  <path
    d="M15.1016 8.61503C14.987 8.71736 14.8723 8.82174 14.7577 8.92816C14.6369 9.04073 14.5162 9.15738 14.3974 9.27404C13.681 9.97603 13.0178 10.7333 12.4119 11.5356C8.70702 11.9551 5.22931 13.1237 2.13232 14.8838C3.14555 12.3542 7.48706 8.25073 9.40502 7.89257C10.2504 7.81275 13.114 8.15045 15.1016 8.61503Z"
    fill="white" />
  <path
    d="M11.8913 12.2578C11.7316 12.4891 11.5781 12.7265 11.4266 12.9639C11.3243 13.1276 11.224 13.2934 11.1257 13.4592C10.6202 14.3208 10.176 15.2234 9.80139 16.1607C6.21929 17.708 3.03633 20.0043 0.453125 22.8552C0.541142 20.3624 3.52145 15.0023 4.90312 14.4907C4.90312 14.4907 8.25392 12.7408 11.8913 12.2578Z"
    fill="white" />
  <path
    d="M9.39505 17.2773C9.33978 17.4411 9.28861 17.6068 9.23743 17.7726C9.18421 17.9486 9.13304 18.1246 9.08391 18.3027C8.87308 19.0722 8.70728 19.8602 8.58856 20.6645C5.51 23.6301 3.13353 27.3201 1.72935 31.4584C0.892156 29.0311 0.732497 25.5948 2.55016 22.1401C2.57063 22.1012 6.69516 18.5585 9.39709 17.2773H9.39505Z"
    fill="white" />
  <path
    d="M6.32769 37.3267C6.32769 38.0451 6.35635 38.7573 6.41162 39.4634C4.62671 37.4475 3.21638 32.6502 3.44564 30.0919C4.77613 26.844 6.84761 23.7986 8.42578 22.1367C8.41555 22.2882 8.40531 22.4396 8.39712 22.5911C8.38075 22.9329 8.37051 23.2787 8.37051 23.6246C8.37051 24.6029 8.44011 25.5648 8.57521 26.5063C7.12804 29.8197 6.32565 33.4791 6.32565 37.3247L6.32769 37.3267Z"
    fill="white" />
  <path
    d="M14.0049 45.1825C11.4893 43.9852 8.76893 41.1936 7.28491 36.9468C7.28491 36.9468 7.59195 30.4243 8.81805 27.8496C8.82419 27.8783 8.83033 27.9069 8.83647 27.9356C8.90812 28.2671 8.98999 28.5966 9.07801 28.9241C9.7187 31.2757 10.777 33.4574 12.1648 35.3812C12.1668 38.8379 12.8177 42.1432 14.0029 45.1804L14.0049 45.1825Z"
    fill="white" />
  <path
    d="M22.7131 47.4328C19.9007 47.2567 16.8774 45.3882 14.4231 43.4684C13.5532 41.9846 13.0169 38.4542 12.7979 36.207C12.8286 36.2459 12.8593 36.2848 12.892 36.3237C13.0762 36.5509 13.2666 36.7739 13.4611 36.9909C14.9266 38.6384 16.6583 40.0404 18.5906 41.1353C18.6541 41.1701 18.7175 41.2069 18.781 41.2417C19.8106 43.4869 21.139 45.5683 22.7152 47.4307L22.7131 47.4328Z"
    fill="white" />
  <path
    d="M30.7542 46.5666C29.1105 47.0967 26.8344 47.813 22.3311 45.9465C20.8676 44.2212 20.8185 43.8303 19.8196 41.7734C21.7928 42.7169 23.9421 43.3493 26.206 43.6052C26.4086 43.6277 26.6112 43.6481 26.8159 43.6645C28.0216 44.7595 29.3398 45.7337 30.7522 46.5666H30.7542Z"
    fill="white" />
  <path
    d="M36.1657 5.02851C35.746 4.85455 35.3162 4.69492 34.8822 4.5496C34.7451 4.50458 34.6079 4.45955 34.4708 4.41657C32.6204 3.84147 29.2307 3.52834 27.192 3.51606C24.0888 1.93402 22.0644 0.929131 18.4148 0.652837C21.7943 0.0634101 24.4041 0.421569 25.8349 0.601672C28.8786 0.982343 32.3277 2.13868 36.1657 5.03056V5.02851Z"
    fill="white" />
  <path
    d="M39.3689 40.5488C38.8264 41.5394 34.4235 45.1292 30.5016 45.6285C29.2325 44.8795 29.1507 44.6953 28.0474 43.7313C28.1968 43.7354 28.3462 43.7375 28.4977 43.7375C29.1363 43.7375 29.7688 43.7068 30.3931 43.6495C30.4504 43.6433 30.5098 43.6392 30.5671 43.6331C31.9365 43.4939 33.265 43.2156 34.5381 42.8165C34.6507 42.7817 34.7613 42.7449 34.8718 42.708C35.3282 42.5566 35.7765 42.3887 36.2166 42.2045C37.3219 41.7461 38.3761 41.1894 39.3709 40.5509L39.3689 40.5488Z"
    fill="white" />
  <path
    d="M60.1339 29.1834V13.248H66.7203C67.2244 13.248 67.735 13.3093 68.2532 13.4318C68.7713 13.5544 69.2497 13.7951 69.6893 14.1552C70.1279 14.5153 70.4805 15.0484 70.7471 15.7535C71.0137 16.4585 71.147 17.4022 71.147 18.5824C71.147 19.7625 71.0105 20.7127 70.7364 21.4328C70.4623 22.153 70.1064 22.7033 69.6679 23.0848C69.2282 23.4664 68.753 23.7254 68.2424 23.8619C67.7307 23.9984 67.2384 24.0672 66.7633 24.0672C66.5182 24.0672 66.2129 24.0565 65.8452 24.035C65.4776 24.0135 65.096 23.9845 64.7004 23.949C64.3037 23.9135 63.9372 23.877 63.5985 23.8415C63.2599 23.806 62.9901 23.7738 62.7891 23.7448V29.1855H60.1328L60.1339 29.1834ZM62.7902 21.6478H66.3752C66.7923 21.6478 67.1599 21.5511 67.4771 21.3565C67.7931 21.162 68.0382 20.846 68.2113 20.4064C68.3843 19.9678 68.4703 19.367 68.4703 18.6039C68.4703 17.8408 68.38 17.2647 68.2005 16.8337C68.0199 16.4016 67.7823 16.0963 67.4878 15.9158C67.1922 15.7363 66.8503 15.646 66.4623 15.646H62.7912V21.6489L62.7902 21.6478Z"
    fill="white" />
  <path
    d="M78.0196 29.2867C76.7672 29.2867 75.7696 29.1137 75.029 28.7687C74.2872 28.4236 73.7508 27.8228 73.4197 26.9662C73.0886 26.1096 72.9231 24.9186 72.9231 23.3924C72.9231 21.8662 73.0811 20.6323 73.3982 19.7756C73.7143 18.919 74.2399 18.3182 74.9752 17.9731C75.7094 17.6281 76.7027 17.4551 77.9551 17.4551C79.0634 17.4551 79.9524 17.5669 80.6221 17.7893C81.2918 18.0129 81.7809 18.4084 82.0905 18.977C82.4001 19.5456 82.5549 20.3485 82.5549 21.3846C82.5549 22.1187 82.4108 22.7056 82.1227 23.1441C81.8347 23.5837 81.4208 23.8965 80.8811 24.0835C80.3415 24.2705 79.704 24.364 78.9698 24.364H75.5794C75.6084 25.0842 75.7051 25.656 75.8707 26.0805C76.0362 26.5051 76.3383 26.8114 76.778 26.9984C77.2166 27.1854 77.8615 27.279 78.7108 27.279H82.2087V28.8557C81.6186 28.9707 80.9962 29.0718 80.3404 29.1578C79.6847 29.2437 78.9118 29.2878 78.0185 29.2878L78.0196 29.2867ZM75.5579 22.7443H78.7108C79.2149 22.7443 79.5858 22.6475 79.8234 22.453C80.0609 22.2585 80.1792 21.9027 80.1792 21.3846C80.1792 20.8666 80.1072 20.485 79.9631 20.197C79.8191 19.9089 79.5815 19.7036 79.2504 19.5811C78.9193 19.4585 78.4872 19.3973 77.9551 19.3973C77.3509 19.3973 76.8758 19.4908 76.5296 19.6778C76.1846 19.8648 75.9363 20.2002 75.7847 20.6817C75.6331 21.1643 75.5579 21.8511 75.5579 22.7443Z"
    fill="white" />
  <path
    d="M87.8934 34.5116C87.1592 34.5116 86.5035 34.4073 85.9283 34.1988C85.3522 33.9903 84.9028 33.6732 84.5782 33.2486C84.2546 32.8241 84.0923 32.3093 84.0923 31.7052V31.2946C84.0923 30.6605 84.2718 30.1252 84.6319 29.6856C84.992 29.246 85.4521 28.9117 86.0143 28.6817C86.5755 28.4517 87.1592 28.3367 87.7633 28.3367L88.5405 29.2224C88.1804 29.2224 87.8569 29.2793 87.5688 29.3954C87.2807 29.5104 87.0506 29.6835 86.8775 29.9135C86.7045 30.1435 86.6185 30.4315 86.6185 30.7776V31.1226C86.6185 31.6407 86.7916 32.019 87.1366 32.2566C87.4817 32.4941 87.9719 32.6124 88.605 32.6124H90.9592C91.6214 32.6124 92.1428 32.4866 92.5244 32.234C92.906 31.9825 93.0963 31.5966 93.0963 31.0786V30.711C93.0963 30.3939 93.0318 30.1284 92.9017 29.9124C92.7716 29.6964 92.5631 29.5276 92.275 29.4051C91.9869 29.2826 91.5978 29.2213 91.1087 29.2213H88.2148C87.0624 29.2213 86.196 28.9988 85.6123 28.5517C85.0297 28.1056 84.7373 27.5446 84.7373 26.8674C84.7373 26.2924 84.906 25.8173 85.2447 25.4422C85.5833 25.0682 86.0541 24.8156 86.6593 24.6866C86.1702 24.4566 85.7843 24.161 85.5037 23.801C85.2232 23.4409 85.0254 23.0529 84.9103 22.6348C84.7953 22.2177 84.7373 21.7932 84.7373 21.3611C84.7373 20.483 84.9168 19.7671 85.2769 19.2125C85.637 18.659 86.1627 18.2484 86.8539 17.9819C87.5451 17.7153 88.4019 17.582 89.4242 17.582H95.6655V19.0717L93.6144 19.3523C93.7585 19.4963 93.9133 19.6693 94.0788 19.8703C94.2444 20.0724 94.3841 20.3379 94.5002 20.6689C94.6152 21 94.6733 21.432 94.6733 21.9641C94.6733 22.6122 94.54 23.2023 94.2734 23.7343C94.0068 24.2674 93.5714 24.692 92.9673 25.008C92.3632 25.3251 91.5494 25.4831 90.5271 25.4831H88.562C88.1009 25.4831 87.7268 25.5551 87.4387 25.6991C87.1506 25.8431 87.0065 26.0882 87.0065 26.4332C87.0065 26.7212 87.1216 26.9222 87.3516 27.0383C87.5817 27.1533 87.8268 27.2114 88.0858 27.2114H91.5193C92.3976 27.2114 93.1425 27.3264 93.7542 27.5564C94.3658 27.7864 94.8302 28.1465 95.1473 28.6355C95.4634 29.1246 95.6225 29.7727 95.6225 30.5788V30.9464C95.6225 32.0545 95.2667 32.9251 94.554 33.5593C93.8412 34.1923 92.7512 34.5094 91.2817 34.5094H87.8913L87.8934 34.5116ZM88.9953 23.4774H90.2476C90.7797 23.4774 91.1947 23.3947 91.4892 23.2291C91.7837 23.0636 91.9858 22.8401 92.0933 22.5595C92.2008 22.279 92.2557 21.9662 92.2557 21.6201C92.2557 21.1311 92.1804 20.7388 92.0288 20.4432C91.8773 20.1487 91.6612 19.9359 91.3806 19.8058C91.1001 19.6758 90.7582 19.6113 90.3551 19.6113H89.1458C88.4975 19.6113 88.0041 19.7553 87.6666 20.0434C87.328 20.3314 87.1592 20.8205 87.1592 21.5116C87.1592 22.2027 87.3172 22.7025 87.6343 23.012C87.9504 23.3216 88.404 23.4764 88.9953 23.4764V23.4774Z"
    fill="white" />
  <path
    d="M99.6456 29.3105C98.7813 29.3105 98.0761 29.0514 97.5289 28.5334C96.9818 28.0153 96.7087 27.3027 96.7087 26.3956V25.4239C96.7087 24.5318 97.014 23.8042 97.6268 23.2431C98.2384 22.682 99.178 22.4015 100.445 22.4015H103.75V21.3869C103.75 20.9838 103.678 20.6453 103.534 20.3722C103.39 20.0992 103.131 19.8939 102.757 19.7564C102.382 19.6199 101.814 19.5511 101.051 19.5511H97.5526V17.9969C98.0847 17.8529 98.7114 17.7271 99.4317 17.6185C100.152 17.5111 101.009 17.4563 102.002 17.4563C102.952 17.4423 103.758 17.553 104.421 17.7905C105.083 18.0281 105.583 18.4204 105.921 18.9675C106.26 19.5145 106.429 20.2626 106.429 21.2128V29.1804H104.334L103.88 27.9283C103.779 28.0142 103.599 28.1303 103.34 28.2733C103.081 28.4173 102.758 28.5721 102.368 28.7376C101.979 28.9031 101.552 29.0396 101.084 29.1482C100.616 29.2557 100.137 29.3105 99.6477 29.3105H99.6456ZM100.941 27.4317C101.128 27.4317 101.341 27.407 101.578 27.3564C101.816 27.3059 102.057 27.249 102.302 27.1834C102.547 27.1189 102.774 27.0533 102.982 26.9889C103.191 26.9244 103.364 26.8631 103.5 26.8051C103.637 26.7481 103.72 26.7116 103.749 26.6976V23.6741L101.244 23.8042C100.582 23.8622 100.102 24.0342 99.8079 24.3222C99.5123 24.6103 99.365 24.9918 99.365 25.4669V25.942C99.365 26.302 99.4403 26.5933 99.5918 26.8169C99.7434 27.0404 99.9369 27.1952 100.174 27.2812C100.412 27.3672 100.668 27.4177 100.941 27.4328V27.4317Z"
    fill="white" />
  <path
    d="M113.233 29.3075C112.902 29.3075 112.523 29.2968 112.099 29.2753C111.674 29.2538 111.249 29.2248 110.825 29.1893C110.4 29.1538 110.008 29.1065 109.648 29.0485C109.288 28.9915 108.992 28.926 108.762 28.8539V27.2772H113.751C114.111 27.2772 114.416 27.2482 114.669 27.1912C114.921 27.1342 115.112 27.0181 115.241 26.8462C115.371 26.6731 115.435 26.4141 115.435 26.0691V25.6585C115.435 25.2984 115.317 25.0147 115.08 24.8051C114.842 24.5966 114.428 24.4923 113.838 24.4923H112.089C111.412 24.4923 110.811 24.3988 110.286 24.2118C109.761 24.0248 109.347 23.7077 109.045 23.2616C108.743 22.8156 108.591 22.2115 108.591 21.4473V20.7992C108.591 20.0651 108.732 19.4568 109.012 18.9742C109.293 18.4916 109.761 18.1251 110.416 17.8725C111.071 17.621 111.946 17.4941 113.04 17.4941C113.5 17.4941 113.998 17.5156 114.53 17.5586C115.062 17.6016 115.574 17.6554 116.063 17.7209C116.552 17.7854 116.941 17.8617 117.23 17.9477V19.5245H112.522C111.989 19.5245 111.583 19.6148 111.302 19.7943C111.022 19.9748 110.881 20.3091 110.881 20.7981V21.2087C110.881 21.5258 110.945 21.7633 111.075 21.9213C111.205 22.0804 111.399 22.1879 111.658 22.2449C111.917 22.3029 112.227 22.3308 112.587 22.3308H114.379C115.516 22.3308 116.358 22.5899 116.905 23.1079C117.452 23.626 117.725 24.3601 117.725 25.3103V26.2604C117.725 27.0375 117.545 27.6501 117.185 28.0962C116.825 28.5422 116.31 28.8561 115.642 29.0356C114.972 29.2151 114.169 29.3054 113.234 29.3054L113.233 29.3075Z"
    fill="white" />
  <path
    d="M123.086 34.2964L124.425 29.1792C123.864 29.1792 123.357 29.0717 122.903 28.8556C122.449 28.6396 122.065 28.3161 121.747 27.884C121.43 27.4519 121.171 26.8984 120.97 26.2212L118.594 17.6055H121.358L123.453 25.6806C123.554 26.0117 123.676 26.2632 123.821 26.4362C123.965 26.6093 124.109 26.735 124.253 26.8146C124.397 26.8941 124.531 26.9403 124.653 26.9554C124.776 26.9693 124.858 26.9768 124.901 26.9768L127.299 17.6055H130.019L126.305 32.1586L125.269 34.2964H123.088H123.086Z"
    fill="white" />
  <path
    d="M135.855 29.3075C135.524 29.3075 135.145 29.2968 134.721 29.2753C134.296 29.2538 133.872 29.2248 133.447 29.1893C133.022 29.1538 132.63 29.1065 132.27 29.0485C131.91 28.9915 131.614 28.926 131.384 28.8539V27.2772H136.373C136.733 27.2772 137.038 27.2482 137.291 27.1912C137.543 27.1342 137.734 27.0181 137.863 26.8462C137.993 26.6731 138.058 26.4141 138.058 26.0691V25.6585C138.058 25.2984 137.939 25.0147 137.702 24.8051C137.464 24.5966 137.05 24.4923 136.46 24.4923H134.711C134.034 24.4923 133.433 24.3988 132.908 24.2118C132.383 24.0248 131.969 23.7077 131.667 23.2616C131.365 22.8156 131.213 22.2115 131.213 21.4473V20.7992C131.213 20.0651 131.354 19.4568 131.635 18.9742C131.915 18.4916 132.383 18.1251 133.038 17.8725C133.693 17.621 134.568 17.4941 135.662 17.4941C136.123 17.4941 136.62 17.5156 137.152 17.5586C137.684 17.6016 138.196 17.6554 138.685 17.7209C139.174 17.7854 139.564 17.8617 139.852 17.9477V19.5245H135.144C134.611 19.5245 134.205 19.6148 133.924 19.7943C133.644 19.9748 133.503 20.3091 133.503 20.7981V21.2087C133.503 21.5258 133.567 21.7633 133.697 21.9213C133.827 22.0804 134.021 22.1879 134.28 22.2449C134.539 22.3029 134.849 22.3308 135.209 22.3308H137.001C138.138 22.3308 138.98 22.5899 139.527 23.1079C140.074 23.626 140.347 24.3601 140.347 25.3103V26.2604C140.347 27.0375 140.167 27.6501 139.808 28.0962C139.447 28.5422 138.933 28.8561 138.264 29.0356C137.594 29.2151 136.791 29.3054 135.856 29.3054L135.855 29.3075Z"
    fill="white" />
</svg>