<svg xmlns="http://www.w3.org/2000/svg" width="25" height="25" viewBox="0 0 25 25" fill="none">
  <path
    d="M17.5 2.5H20.5C20.7652 2.5 21.0196 2.60536 21.2071 2.79289C21.3946 2.98043 21.5 3.23478 21.5 3.5V21.5C21.5 21.7652 21.3946 22.0196 21.2071 22.2071C21.0196 22.3946 20.7652 22.5 20.5 22.5H4.5C4.23478 22.5 3.98043 22.3946 3.79289 22.2071C3.60536 22.0196 3.5 21.7652 3.5 21.5V3.5C3.5 3.23478 3.60536 2.98043 3.79289 2.79289C3.98043 2.60536 4.23478 2.5 4.5 2.5H7.5V0.5H9.5V2.5H15.5V0.5H17.5V2.5ZM17.5 4.5V6.5H15.5V4.5H9.5V6.5H7.5V4.5H5.5V20.5H19.5V4.5H17.5ZM7.5 8.5H17.5V10.5H7.5V8.5ZM7.5 12.5H17.5V14.5H7.5V12.5Z"
    fill="white" />
</svg>