<svg width="142" height="50" viewBox="0 0 142 50" fill="none" xmlns="http://www.w3.org/2000/svg">
<path d="M61.7047 32.1615V26.9497C61.7047 25.9554 61.4624 25.6593 60.6026 25.6593H55.4438V32.1598H52.7837V16.5781H60.6295C62.832 16.5781 64.4439 18.109 64.4439 20.2052V21.8976C64.4439 23.2132 63.8533 23.94 63.3957 24.3421C63.8786 24.692 64.4439 25.3901 64.4439 26.598V32.1581H61.703L61.7047 32.1615ZM61.7047 20.0185C61.7047 19.4549 61.2218 18.9435 60.7641 18.9435H55.4438V23.0803H60.468C61.4624 23.0803 61.703 22.8111 61.703 21.8707V20.0168L61.7047 20.0185Z" fill="white"/>
<path d="M76.5938 32.1618H71.9179C69.7154 32.1618 68.1035 30.6308 68.1035 28.5347V20.2072C68.1035 18.111 69.7154 16.5801 71.9179 16.5801H76.5938C78.7963 16.5801 80.4082 18.111 80.4082 20.2072V28.5347C80.4082 30.6308 78.7963 32.1618 76.5938 32.1618ZM77.7228 20.0726C77.7228 19.5359 77.2668 19.0783 76.7822 19.0783H71.7311C71.2482 19.0783 70.7906 19.5342 70.7906 20.0726V28.6693C70.7906 29.2059 71.2466 29.6635 71.7311 29.6635H76.7822C77.2651 29.6635 77.7228 29.2076 77.7228 28.6693V20.0726Z" fill="white"/>
<path d="M84.0693 32.1618V16.5801H86.8641V29.6635H93.8501V32.1618H84.071H84.0693Z" fill="white"/>
<path d="M96.9719 32.1618V16.5801H99.7667V29.6635H106.753V32.1618H96.9736H96.9719Z" fill="white"/>
<path d="M117.828 32.1618H113.691C111.488 32.1618 109.876 30.6308 109.876 28.5347V16.5801H112.671V28.6693C112.671 29.2059 113.127 29.6635 113.612 29.6635H117.91C118.395 29.6635 118.851 29.2076 118.851 28.6693V16.5801H121.646V28.5347C121.646 30.6308 120.034 32.1618 117.831 32.1618H117.828Z" fill="white"/>
<path d="M135.672 22.7323L133.55 24.5055L135.726 26.0903C136.666 26.7884 136.962 27.4597 136.962 28.8038V32.1618H134.195V29.0192C134.195 28.2133 134.168 28.1326 133.712 27.8096L130.917 25.7942L128.526 27.8096C128.097 28.1595 128.043 28.2655 128.043 29.1269V32.1618H125.302V29.0192C125.302 27.6767 125.491 26.9768 126.512 26.1172L128.741 24.2633L126.566 22.6516C125.76 22.088 125.304 21.4168 125.304 20.0187V16.5801H128.045V19.938C128.045 20.4747 128.072 20.5823 128.422 20.8515L131.378 22.9746L133.715 20.9592C134.117 20.6092 134.225 20.4225 134.225 19.938V16.5801H136.993V20.0995C136.993 21.4689 136.483 22.0611 135.675 22.7323H135.672Z" fill="white"/>
<path fill-rule="evenodd" clip-rule="evenodd" d="M24.8882 46.3309C36.7391 46.3309 46.3461 36.7284 46.3461 24.8832C46.3461 13.038 36.7391 3.43555 24.8882 3.43555C13.0372 3.43555 3.43018 13.038 3.43018 24.8832C3.43018 36.7284 13.0372 46.3309 24.8882 46.3309ZM15.412 13.8115H16.2989L37.5688 33.3029V35.961H15.412V13.8115ZM33.1363 22.6706C33.1363 24.1107 32.7931 25.47 32.184 26.6712L19.6051 15.1422C20.9613 14.2994 22.5614 13.8115 24.2759 13.8115C29.1688 13.8115 33.1363 17.7768 33.1363 22.6706Z" fill="white"/>
</svg>
