<?xml version="1.0" standalone="no"?>
<!DOCTYPE svg PUBLIC "-//W3C//DTD SVG 20010904//EN"
 "http://www.w3.org/TR/2001/REC-SVG-20010904/DTD/svg10.dtd">
<svg version="1.0" xmlns="http://www.w3.org/2000/svg"
 width="808.000000pt" height="808.000000pt" viewBox="0 0 808.000000 808.000000"
 preserveAspectRatio="xMidYMid meet">
<metadata>
Created by potrace 1.14, written by Peter Selinger 2001-2017
</metadata>
<g transform="translate(0.000000,808.000000) scale(0.100000,-0.100000)"
fill="#000000" stroke="none">
<path d="M3925 8001 c-2 -1 -46 -5 -97 -6 -51 -2 -118 -6 -148 -9 -115 -12
-146 -16 -180 -20 -19 -3 -53 -8 -75 -11 -23 -3 -52 -7 -65 -10 -14 -3 -41 -8
-60 -11 -19 -4 -44 -9 -55 -11 -11 -2 -31 -6 -45 -9 -23 -5 -176 -42 -265 -65
-93 -24 -321 -105 -455 -162 -14 -6 -27 -11 -30 -12 -44 -15 -268 -124 -274
-134 -3 -5 -17 -12 -31 -15 -14 -4 -34 -14 -45 -23 -10 -9 -27 -18 -37 -19
-10 -2 -19 -8 -21 -13 -2 -6 -7 -11 -12 -11 -18 0 -286 -173 -302 -195 -4 -5
-8 -7 -8 -2 0 4 -9 -1 -19 -10 -25 -23 -40 -34 -72 -55 -14 -9 -32 -23 -40
-30 -8 -7 -30 -25 -51 -40 -20 -15 -42 -33 -50 -40 -7 -7 -47 -42 -88 -77
-122 -105 -333 -322 -430 -441 -25 -30 -47 -57 -50 -60 -15 -13 -134 -176
-201 -275 -93 -138 -180 -286 -254 -435 -58 -117 -68 -139 -103 -220 -11 -25
-27 -61 -36 -82 -9 -20 -16 -42 -16 -50 0 -8 -4 -18 -9 -24 -7 -7 -28 -63 -36
-94 -1 -3 -4 -12 -8 -20 -9 -25 -39 -120 -41 -133 -1 -7 -4 -16 -7 -22 -7 -11
-59 -206 -66 -245 -2 -14 -8 -41 -13 -60 -5 -19 -12 -51 -15 -70 -22 -123 -26
-148 -30 -175 -17 -118 -20 -149 -33 -290 -9 -99 -7 -557 2 -645 4 -36 7 -72
7 -80 1 -15 13 -108 25 -190 10 -69 12 -85 14 -85 1 0 3 -19 5 -42 2 -23 9
-51 14 -61 6 -11 8 -21 6 -24 -3 -2 0 -20 6 -39 5 -19 12 -45 14 -59 7 -43 14
-70 19 -78 3 -5 7 -22 10 -38 3 -16 17 -67 31 -114 15 -47 28 -92 30 -100 10
-43 64 -187 95 -255 12 -27 23 -57 25 -65 2 -8 25 -60 51 -115 26 -55 48 -102
49 -105 0 -3 10 -21 23 -41 12 -20 22 -39 22 -43 0 -4 25 -50 55 -102 30 -53
55 -97 55 -99 0 -2 20 -33 45 -69 25 -36 42 -66 37 -66 -4 0 -2 -4 3 -8 6 -4
51 -63 100 -132 49 -69 97 -134 107 -145 163 -194 197 -232 329 -364 77 -77
175 -166 276 -251 56 -46 223 -170 231 -170 6 0 12 -4 14 -9 13 -35 568 -351
616 -351 7 0 12 -4 12 -10 0 -5 8 -10 18 -10 10 0 22 -4 27 -9 21 -18 291
-118 470 -174 53 -16 279 -73 330 -82 64 -12 192 -34 225 -39 19 -3 51 -8 70
-10 41 -6 117 -14 215 -23 129 -11 680 -6 680 6 0 1 25 4 55 6 30 2 67 6 81 8
15 3 53 9 85 13 33 4 61 8 64 9 3 1 25 5 50 9 43 8 55 10 99 20 10 2 34 7 52
10 19 3 77 17 129 31 52 14 105 28 117 31 47 10 273 88 393 135 141 56 470
217 470 230 0 5 3 8 8 7 8 -3 132 69 204 119 26 18 50 33 53 33 3 0 11 5 18
10 7 6 68 51 137 102 69 51 130 97 136 103 6 5 37 33 70 60 224 190 445 427
616 660 48 66 91 125 95 130 21 27 93 142 93 149 0 4 5 12 10 19 30 36 73 110
156 275 51 100 94 184 94 187 1 6 29 76 40 100 9 18 53 133 55 145 3 9 16 44
26 65 11 26 86 281 94 320 8 38 13 60 15 60 2 0 20 85 25 120 2 11 7 38 13 60
6 22 13 58 16 80 3 22 9 72 15 110 30 209 36 301 35 575 -1 244 -9 387 -29
527 -3 18 -7 50 -10 70 -3 21 -8 49 -12 63 -3 14 -7 36 -8 50 -5 43 -55 272
-65 300 -1 3 -3 10 -5 15 -1 6 -3 12 -4 15 -1 3 -4 15 -7 27 -10 54 -130 403
-168 486 -11 26 -51 113 -61 137 -2 3 -6 15 -10 28 -4 12 -11 22 -16 22 -5 0
-8 3 -7 8 2 10 -12 42 -39 85 -13 20 -21 37 -19 37 3 0 -16 35 -41 78 -25 42
-56 95 -67 117 -12 22 -28 48 -37 58 -9 9 -22 30 -30 45 -8 15 -22 36 -31 46
-10 11 -18 25 -18 32 0 7 -3 14 -8 16 -4 2 -39 47 -77 101 -38 53 -73 97 -77
97 -4 0 -8 5 -8 10 0 6 -8 18 -17 29 -10 10 -34 38 -53 61 -19 23 -48 59 -65
79 -48 58 -305 312 -369 366 -33 28 -67 57 -75 65 -9 8 -45 37 -81 65 -36 27
-67 52 -70 55 -3 4 -54 40 -115 81 -60 41 -112 76 -115 79 -6 7 -192 119 -242
145 -100 54 -293 147 -383 185 -83 35 -290 113 -317 119 -4 1 -13 3 -20 6 -44
15 -187 55 -208 59 -14 2 -26 5 -27 7 -2 1 -6 2 -10 3 -5 1 -30 7 -58 14 -27
6 -63 14 -80 17 -60 11 -81 16 -110 22 -16 3 -37 7 -45 8 -8 1 -35 6 -60 10
-25 4 -56 8 -70 10 -14 1 -47 5 -75 9 -149 19 -578 39 -590 27z"/>
</g>
</svg>
