<svg width="652" height="410" viewBox="0 0 652 410" fill="none" xmlns="http://www.w3.org/2000/svg">
<g clip-path="url(#clip0_163_3097)">
<g opacity="0.5">
<path d="M479.395 272.476C479.463 272.476 479.531 272.462 479.598 272.422L545.278 234.526C545.468 234.418 545.535 234.175 545.427 233.972C545.319 233.783 545.076 233.715 544.873 233.823L479.395 271.611L287.183 160.708C287.061 160.64 286.899 160.64 286.777 160.708L158.703 234.607L74.213 185.859C74.0236 185.751 73.7802 185.819 73.6585 186.008C73.5503 186.197 73.6179 186.44 73.8072 186.562L158.5 235.432C158.622 235.499 158.784 235.499 158.906 235.432L286.98 161.532L479.193 272.435C479.193 272.435 479.328 272.489 479.395 272.489V272.476Z" fill="#42E8E0"/>
<path d="M168.088 305.019C168.155 305.019 168.223 305.006 168.291 304.965L436.839 150.004C436.961 149.936 437.042 149.801 437.042 149.652C437.042 149.504 436.961 149.382 436.839 149.301L299.515 70.0633C299.326 69.9552 299.083 70.0228 298.961 70.212C298.853 70.4012 298.921 70.6445 299.11 70.7661L435.825 149.652L168.074 304.141L99.622 264.637C99.4327 264.529 99.1893 264.596 99.0676 264.785C98.9594 264.975 99.027 265.218 99.2163 265.339L167.871 304.951C167.871 304.951 168.007 305.006 168.074 305.006L168.088 305.019Z" fill="#42E8E0"/>
<path d="M237.581 382.594C237.649 382.594 237.716 382.58 237.784 382.54L319.759 335.238C319.881 335.17 319.962 335.035 319.962 334.886C319.962 334.738 319.881 334.616 319.759 334.535L217.797 275.705C217.608 275.597 217.365 275.664 217.243 275.854C217.121 276.043 217.202 276.286 217.392 276.408L318.758 334.886L237.392 381.837C237.203 381.945 237.135 382.188 237.243 382.391C237.311 382.513 237.446 382.594 237.595 382.594H237.581Z" fill="#42E8E0"/>
<path d="M117.675 406.232C117.743 406.232 117.81 406.218 117.878 406.178L560.789 150.612C560.978 150.504 561.046 150.26 560.938 150.058C560.829 149.868 560.586 149.801 560.383 149.909L117.459 405.475C117.269 405.583 117.202 405.826 117.31 406.029C117.377 406.151 117.513 406.232 117.661 406.232H117.675Z" fill="#42E8E0"/>
<path d="M385.345 297.329C385.412 297.329 385.48 297.315 385.547 297.275L501.789 230.201C501.911 230.133 501.992 229.998 501.992 229.849C501.992 229.7 501.911 229.579 501.789 229.498L399.827 170.668C399.638 170.559 399.395 170.627 399.273 170.816C399.151 171.005 399.232 171.249 399.422 171.37L500.775 229.849L385.331 296.464L108.425 136.691C108.236 136.583 107.993 136.651 107.871 136.84C107.763 137.029 107.83 137.272 108.02 137.394L385.115 297.288C385.115 297.288 385.25 297.342 385.318 297.342L385.345 297.329Z" fill="#42E8E0"/>
</g>
<path opacity="0.3" d="M497.516 155.166L532.648 134.893L497.516 114.621L462.37 134.893L497.516 155.166Z" fill="#42E8E0"/>
<path opacity="0.5" d="M497.516 131.812L532.648 111.54L497.516 91.2539L462.37 111.54L497.516 131.812Z" fill="#42E8E0"/>
<path opacity="0.7" d="M497.516 113.094L532.648 92.8084L497.516 72.5361L462.37 92.8084L497.516 113.094Z" fill="#42E8E0"/>
<path d="M497.516 114.08C497.692 114.08 497.854 114.04 498.016 113.945L533.162 93.673C533.473 93.4973 533.662 93.1594 533.662 92.8081C533.662 92.4567 533.473 92.1188 533.162 91.9431L498.03 71.6708C497.719 71.4951 497.34 71.4951 497.029 71.6708L461.884 91.9431C461.573 92.1188 461.383 92.4567 461.383 92.8081C461.383 93.1594 461.573 93.4973 461.884 93.673L497.016 113.945C497.164 114.04 497.34 114.08 497.516 114.08ZM530.66 92.8081L497.516 111.932L464.372 92.8081L497.516 73.6845L530.66 92.8081Z" fill="#42E8E0"/>
<path style="mix-blend-mode:lighten" opacity="0.3" d="M497.205 179.303C411.714 179.303 342.41 139.314 342.41 89.9837C342.41 40.6538 411.714 0.664062 497.205 0.664062C582.696 0.664062 652 40.6538 652 89.9837C652 139.314 582.696 179.303 497.205 179.303Z" fill="url(#paint0_radial_163_3097)"/>
<path style="mix-blend-mode:lighten" opacity="0.3" d="M104.558 409.665C46.8122 409.665 -1.52588e-05 382.654 -1.52588e-05 349.334C-1.52588e-05 316.015 46.8122 289.004 104.558 289.004C162.304 289.004 209.116 316.015 209.116 349.334C209.116 382.654 162.304 409.665 104.558 409.665Z" fill="url(#paint1_radial_163_3097)"/>
<path opacity="0.7" d="M158.135 219.916L193.267 199.643L158.135 179.371L123.003 199.643L158.135 219.916Z" fill="#42E8E0"/>
<path d="M158.135 220.915C158.311 220.915 158.473 220.875 158.636 220.78L193.781 200.508C194.092 200.332 194.281 199.994 194.281 199.643C194.281 199.292 194.092 198.954 193.781 198.778L158.649 178.506C158.338 178.33 157.959 178.33 157.648 178.506L122.516 198.778C122.205 198.954 122.016 199.292 122.016 199.643C122.016 199.994 122.205 200.332 122.516 200.508L157.648 220.78C157.797 220.875 157.973 220.915 158.149 220.915H158.135ZM191.279 199.643L158.135 218.767L124.991 199.643L158.135 180.52L191.279 199.643Z" fill="#42E8E0"/>
<path opacity="0.7" d="M104.558 359.97L123.003 349.333L104.558 338.697L86.1264 349.333L104.558 359.97Z" fill="#42E8E0"/>
<path opacity="0.5" d="M104.558 349.335L123.003 338.699L104.558 328.062L86.1264 338.699L104.558 349.335Z" fill="#42E8E0"/>
<path opacity="0.3" d="M104.558 338.698L123.003 328.062L104.558 317.426L86.1264 328.062L104.558 338.698Z" fill="#42E8E0"/>
<path d="M104.558 360.97C104.734 360.97 104.896 360.93 105.058 360.835L123.49 350.199C123.801 350.023 123.99 349.685 123.99 349.334C123.99 348.983 123.801 348.645 123.49 348.469L105.058 337.833C104.747 337.657 104.369 337.657 104.058 337.833L85.6262 348.469C85.3151 348.645 85.1258 348.983 85.1258 349.334C85.1258 349.685 85.3151 350.023 85.6262 350.199L104.058 360.835C104.206 360.93 104.382 360.97 104.558 360.97ZM121.002 349.334L104.558 358.822L88.1143 349.334L104.558 339.847L121.002 349.334Z" fill="#42E8E0"/>
<path opacity="0.7" d="M436.636 335.02L455.068 324.384L436.636 313.748L418.205 324.384L436.636 335.02Z" fill="#42E8E0"/>
<path d="M436.636 336.021C436.812 336.021 436.974 335.981 437.137 335.886L455.568 325.25C455.879 325.074 456.069 324.736 456.069 324.385C456.069 324.033 455.879 323.696 455.568 323.52L437.137 312.884C436.826 312.708 436.447 312.708 436.136 312.884L417.705 323.52C417.394 323.696 417.204 324.033 417.204 324.385C417.204 324.736 417.394 325.074 417.705 325.25L436.136 335.886C436.285 335.981 436.461 336.021 436.636 336.021ZM453.08 324.385L436.636 333.872L420.193 324.385L436.636 314.897L453.08 324.385Z" fill="#42E8E0"/>
<g opacity="0.11">
<path d="M421.748 169.978C425.548 167.789 430.227 167.789 434.027 169.978L507.185 212.09C508.334 212.753 508.334 214.415 507.185 215.077L476.921 232.471C473.567 234.403 469.443 234.403 466.089 232.471L392.214 189.953C391.065 189.291 391.065 187.628 392.214 186.966L421.762 169.992L421.748 169.978Z" fill="url(#paint2_linear_163_3097)"/>
</g>
<g opacity="0.11">
<path d="M421.748 157.666C425.548 155.477 430.227 155.477 434.027 157.666L507.185 199.779C508.334 200.441 508.334 202.103 507.185 202.766L476.921 220.159C473.567 222.092 469.443 222.092 466.089 220.159L392.214 177.641C391.065 176.979 391.065 175.317 392.214 174.655L421.762 157.68L421.748 157.666Z" fill="url(#paint3_linear_163_3097)"/>
</g>
<g opacity="0.11">
<path d="M421.748 145.341C425.548 143.152 430.227 143.152 434.027 145.341L507.185 187.454C508.334 188.116 508.334 189.778 507.185 190.44L476.921 207.834C473.567 209.767 469.443 209.767 466.089 207.834L392.214 165.316C391.065 164.654 391.065 162.992 392.214 162.329L421.762 145.355L421.748 145.341Z" fill="url(#paint4_linear_163_3097)"/>
</g>
<g opacity="0.11">
<path d="M421.748 133.029C425.548 130.839 430.227 130.839 434.027 133.029L507.185 175.141C508.334 175.803 508.334 177.466 507.185 178.128L476.921 195.521C473.567 197.454 469.443 197.454 466.089 195.521L392.214 153.004C391.065 152.341 391.065 150.679 392.214 150.017L421.762 133.042L421.748 133.029Z" fill="url(#paint5_linear_163_3097)"/>
</g>
<path opacity="0.5" d="M392.201 150.003L421.748 133.029C425.548 130.839 430.227 130.839 434.027 133.029L507.185 175.141C507.766 175.479 508.05 176.06 508.05 176.641V213.591C508.05 214.172 507.766 214.753 507.185 215.091L476.921 232.485C473.567 234.417 469.443 234.417 466.089 232.485L392.214 189.967C391.633 189.629 391.349 189.048 391.349 188.467V151.517C391.349 150.936 391.633 150.355 392.214 150.017L392.201 150.003Z" fill="url(#paint6_linear_163_3097)"/>
<g opacity="0.11">
<path d="M421.748 133.029C425.548 130.839 430.227 130.839 434.027 133.029L507.185 175.141C508.334 175.803 508.334 177.466 507.185 178.128L476.921 195.521C473.567 197.454 469.443 197.454 466.089 195.521L392.214 153.004C391.065 152.341 391.065 150.679 392.214 150.017L421.762 133.042L421.748 133.029Z" fill="url(#paint7_linear_163_3097)"/>
</g>
<path d="M392.201 151.287L466.076 193.805C469.429 195.738 473.554 195.738 476.907 193.805L507.171 176.411C507.455 176.249 507.672 176.02 507.807 175.763C508.24 176.547 508.037 177.614 507.171 178.114L476.907 195.508C473.554 197.441 469.429 197.441 466.076 195.508L392.201 152.99C391.335 152.49 391.119 151.423 391.565 150.639C391.714 150.895 391.917 151.125 392.201 151.287Z" fill="url(#paint8_linear_163_3097)"/>
<g opacity="0.11">
<path d="M211.983 298.693C215.783 296.503 220.462 296.503 224.262 298.693L252.74 314.884C253.89 315.546 253.89 317.208 252.74 317.87L222.477 335.264C219.123 337.197 214.998 337.197 211.645 335.264L182.449 318.668C181.3 318.006 181.3 316.343 182.449 315.681L211.996 298.706L211.983 298.693Z" fill="url(#paint9_linear_163_3097)"/>
</g>
<g opacity="0.11">
<path d="M211.983 286.369C215.783 284.179 220.462 284.179 224.262 286.369L252.74 302.559C253.89 303.222 253.89 304.884 252.74 305.546L222.477 322.94C219.123 324.872 214.998 324.872 211.645 322.94L182.449 306.344C181.3 305.681 181.3 304.019 182.449 303.357L211.996 286.382L211.983 286.369Z" fill="url(#paint10_linear_163_3097)"/>
</g>
<g opacity="0.11">
<path d="M211.983 274.056C215.783 271.867 220.462 271.867 224.262 274.056L252.74 290.247C253.89 290.909 253.89 292.571 252.74 293.234L222.477 310.627C219.123 312.56 214.998 312.56 211.645 310.627L182.449 294.031C181.3 293.369 181.3 291.707 182.449 291.044L211.996 274.07L211.983 274.056Z" fill="url(#paint11_linear_163_3097)"/>
</g>
<g opacity="0.11">
<path d="M211.983 261.744C215.783 259.554 220.462 259.554 224.262 261.744L252.74 277.934C253.89 278.597 253.89 280.259 252.74 280.921L222.477 298.315C219.123 300.247 214.998 300.247 211.645 298.315L182.449 281.719C181.3 281.056 181.3 279.394 182.449 278.732L211.996 261.757L211.983 261.744Z" fill="url(#paint12_linear_163_3097)"/>
</g>
<path opacity="0.5" d="M182.436 278.718L211.983 261.744C215.783 259.554 220.462 259.554 224.262 261.744L252.74 277.934C253.322 278.272 253.606 278.853 253.606 279.435V316.384C253.606 316.965 253.322 317.546 252.74 317.884L222.477 335.278C219.123 337.211 214.998 337.211 211.645 335.278L182.449 318.682C181.868 318.344 181.584 317.763 181.584 317.182V280.232C181.584 279.651 181.868 279.07 182.449 278.732L182.436 278.718Z" fill="url(#paint13_linear_163_3097)"/>
<g opacity="0.11">
<path d="M211.983 261.744C215.783 259.554 220.462 259.554 224.262 261.744L252.74 277.934C253.89 278.597 253.89 280.259 252.74 280.921L222.477 298.315C219.123 300.247 214.998 300.247 211.645 298.315L182.449 281.719C181.3 281.056 181.3 279.394 182.449 278.732L211.996 261.757L211.983 261.744Z" fill="url(#paint14_linear_163_3097)"/>
</g>
<path d="M182.436 280.002L211.631 296.598C214.985 298.531 219.109 298.531 222.463 296.598L252.727 279.204C253.011 279.042 253.227 278.812 253.363 278.556C253.795 279.34 253.592 280.407 252.727 280.907L222.463 298.301C219.109 300.233 214.985 300.233 211.631 298.301L182.436 281.705C181.57 281.205 181.354 280.137 181.8 279.353C181.949 279.61 182.152 279.84 182.436 280.002Z" fill="url(#paint15_linear_163_3097)"/>
<g opacity="0.11">
<path d="M211.983 146.813C215.783 144.624 220.462 144.624 224.262 146.813L252.74 163.004C253.89 163.666 253.89 165.328 252.74 165.991L222.477 183.384C219.123 185.317 214.998 185.317 211.645 183.384L182.449 166.788C181.3 166.126 181.3 164.463 182.449 163.801L211.996 146.826L211.983 146.813Z" fill="url(#paint16_linear_163_3097)"/>
</g>
<g opacity="0.11">
<path d="M211.983 134.501C215.783 132.312 220.462 132.312 224.262 134.501L252.74 150.692C253.89 151.354 253.89 153.017 252.74 153.679L222.477 171.073C219.123 173.005 214.998 173.005 211.645 171.073L182.449 154.476C181.3 153.814 181.3 152.152 182.449 151.49L211.996 134.515L211.983 134.501Z" fill="url(#paint17_linear_163_3097)"/>
</g>
<g opacity="0.11">
<path d="M211.983 122.176C215.783 119.987 220.462 119.987 224.262 122.176L252.74 138.367C253.89 139.029 253.89 140.692 252.74 141.354L222.477 158.747C219.123 160.68 214.998 160.68 211.645 158.747L182.449 142.151C181.3 141.489 181.3 139.827 182.449 139.164L211.996 122.19L211.983 122.176Z" fill="url(#paint18_linear_163_3097)"/>
</g>
<g opacity="0.11">
<path d="M211.983 109.864C215.783 107.674 220.462 107.674 224.262 109.864L252.74 126.055C253.89 126.717 253.89 128.379 252.74 129.041L222.477 146.435C219.123 148.368 214.998 148.368 211.645 146.435L182.449 129.839C181.3 129.176 181.3 127.514 182.449 126.852L211.996 109.877L211.983 109.864Z" fill="url(#paint19_linear_163_3097)"/>
</g>
<path opacity="0.5" d="M182.436 126.838L211.983 109.864C215.783 107.674 220.462 107.674 224.262 109.864L252.74 126.055C253.322 126.392 253.606 126.974 253.606 127.555V164.504C253.606 165.085 253.322 165.667 252.74 166.004L222.477 183.398C219.123 185.331 214.998 185.331 211.645 183.398L182.449 166.802C181.868 166.464 181.584 165.883 181.584 165.302V128.352C181.584 127.771 181.868 127.19 182.449 126.852L182.436 126.838Z" fill="url(#paint20_linear_163_3097)"/>
<g opacity="0.11">
<path d="M211.983 109.864C215.783 107.674 220.462 107.674 224.262 109.864L252.74 126.055C253.89 126.717 253.89 128.379 252.74 129.041L222.477 146.435C219.123 148.368 214.998 148.368 211.645 146.435L182.449 129.839C181.3 129.176 181.3 127.514 182.449 126.852L211.996 109.877L211.983 109.864Z" fill="url(#paint21_linear_163_3097)"/>
</g>
<path d="M182.436 128.122L211.631 144.718C214.985 146.651 219.109 146.651 222.463 144.718L252.727 127.324C253.011 127.162 253.227 126.933 253.363 126.676C253.795 127.46 253.592 128.527 252.727 129.027L222.463 146.421C219.109 148.354 214.985 148.354 211.631 146.421L182.436 129.825C181.57 129.325 181.354 128.257 181.8 127.473C181.949 127.73 182.152 127.96 182.436 128.122Z" fill="url(#paint22_linear_163_3097)"/>
<path d="M240.097 222.672L241.922 223.727V222.51L240.097 221.456V222.672Z" fill="#42E8E0"/>
<path d="M240.097 230.916L241.922 231.957V224.834L240.097 223.78V230.916Z" fill="#42E8E0"/>
<path d="M240.097 234.849L241.922 235.903V233.065L240.097 232.024V234.849Z" fill="#42E8E0"/>
<path d="M240.097 238.93L241.922 239.984V237.146L240.097 236.105V238.93Z" fill="#42E8E0"/>
<path d="M237.392 225.05L239.204 226.104V223.266L237.392 222.226V225.05Z" fill="#42E8E0"/>
<path d="M237.392 230.457L239.204 231.511V227.348L237.392 226.308V230.457Z" fill="#42E8E0"/>
<path d="M237.392 235.43L239.204 236.485V232.917L237.392 231.876V235.43Z" fill="#42E8E0"/>
<path d="M240.097 243.012L241.922 244.066V241.228L240.097 240.188V243.012Z" fill="#42E8E0"/>
<path d="M237.392 221.118L239.204 222.158V220.942L237.392 219.901V221.118Z" fill="#42E8E0"/>
<path d="M238.745 246.188L241.922 248.026V246.836L238.745 245.012V246.188Z" fill="#42E8E0"/>
<g opacity="0.11">
<path d="M303.938 202.048C307.738 199.859 312.416 199.859 316.216 202.048L389.374 244.161C390.524 244.823 390.524 246.485 389.374 247.147L315.608 289.706C312.254 291.638 308.13 291.638 304.776 289.706L230.901 247.188C229.752 246.526 229.752 244.863 230.901 244.201L303.938 202.048Z" fill="url(#paint23_linear_163_3097)"/>
</g>
<g opacity="0.11">
<path d="M303.938 189.723C307.738 187.534 312.416 187.534 316.216 189.723L389.374 231.835C390.524 232.498 390.524 234.16 389.374 234.822L315.608 277.38C312.254 279.313 308.13 279.313 304.776 277.38L230.901 234.863C229.752 234.2 229.752 232.538 230.901 231.876L303.938 189.723Z" fill="url(#paint24_linear_163_3097)"/>
</g>
<g opacity="0.11">
<path d="M303.938 177.411C307.738 175.221 312.416 175.221 316.216 177.411L389.374 219.523C390.524 220.185 390.524 221.847 389.374 222.51L315.608 265.068C312.254 267.001 308.13 267.001 304.776 265.068L230.901 222.55C229.752 221.888 229.752 220.226 230.901 219.563L303.938 177.411Z" fill="url(#paint25_linear_163_3097)"/>
</g>
<g opacity="0.11">
<path d="M303.938 165.099C307.738 162.91 312.416 162.91 316.216 165.099L389.374 207.211C390.524 207.874 390.524 209.536 389.374 210.198L315.608 252.756C312.254 254.689 308.13 254.689 304.776 252.756L230.901 210.239C229.752 209.576 229.752 207.914 230.901 207.252L303.938 165.099Z" fill="url(#paint26_linear_163_3097)"/>
</g>
<path opacity="0.5" d="M230.888 207.238L303.924 165.085C307.724 162.896 312.403 162.896 316.203 165.085L389.361 207.198C389.943 207.536 390.227 208.117 390.227 208.698V245.647C390.227 246.229 389.943 246.81 389.361 247.148L315.594 289.706C312.241 291.638 308.116 291.638 304.763 289.706L230.888 247.188C230.306 246.85 230.022 246.269 230.022 245.688V208.738C230.022 208.157 230.306 207.576 230.888 207.238Z" fill="url(#paint27_linear_163_3097)"/>
<g opacity="0.11">
<path d="M303.938 165.099C307.738 162.91 312.416 162.91 316.216 165.099L389.374 207.211C390.524 207.874 390.524 209.536 389.374 210.198L315.608 252.756C312.254 254.689 308.13 254.689 304.776 252.756L230.901 210.239C229.752 209.576 229.752 207.914 230.901 207.252L303.938 165.099Z" fill="url(#paint28_linear_163_3097)"/>
</g>
<path d="M230.888 208.536L304.763 251.054C308.116 252.986 312.241 252.986 315.594 251.054L389.361 208.495C389.645 208.333 389.861 208.103 389.997 207.847C390.429 208.631 390.227 209.698 389.361 210.198L315.594 252.757C312.241 254.689 308.116 254.689 304.763 252.757L230.888 210.239C230.022 209.739 229.806 208.671 230.252 207.887C230.401 208.144 230.604 208.374 230.888 208.536Z" fill="url(#paint29_linear_163_3097)"/>
<path opacity="0.2" d="M281.652 225.254C297.379 234.336 322.883 234.322 338.61 225.254C354.337 216.172 354.337 201.468 338.61 192.386C322.883 183.304 297.379 183.317 281.652 192.386C265.925 201.468 265.925 216.172 281.652 225.254Z" fill="#180D5B"/>
<path opacity="0.7" d="M217.581 138.07L236.026 127.434L217.595 116.784L199.15 127.434L217.581 138.07Z" fill="#42E8E0"/>
<path d="M217.581 139.056C217.757 139.056 217.919 139.016 218.082 138.921L236.513 128.285C236.824 128.109 237.013 127.771 237.013 127.42C237.013 127.069 236.824 126.731 236.513 126.555L218.082 115.919C217.771 115.743 217.392 115.743 217.081 115.919L198.649 126.555C198.338 126.731 198.149 127.069 198.149 127.42C198.149 127.771 198.338 128.109 198.649 128.285L217.081 138.921C217.23 139.016 217.405 139.056 217.581 139.056ZM234.025 127.42L217.581 136.907L201.138 127.42L217.581 117.933L234.025 127.42Z" fill="#42E8E0"/>
<path opacity="0.7" d="M217.581 289.99L236.026 279.354L217.595 268.718L199.15 279.354L217.581 289.99Z" fill="#42E8E0"/>
<path d="M217.581 290.99C217.757 290.99 217.919 290.949 218.082 290.855L236.513 280.219C236.824 280.043 237.013 279.705 237.013 279.354C237.013 279.002 236.824 278.664 236.513 278.489L218.082 267.852C217.771 267.677 217.392 267.677 217.081 267.852L198.649 278.489C198.338 278.664 198.149 279.002 198.149 279.354C198.149 279.705 198.338 280.043 198.649 280.219L217.081 290.855C217.23 290.949 217.405 290.99 217.581 290.99ZM234.025 279.354L217.581 288.841L201.138 279.354L217.581 269.866L234.025 279.354Z" fill="#42E8E0"/>
<path opacity="0.7" d="M469.226 185.196L487.658 174.56L469.226 163.924L450.795 174.56L469.226 185.196Z" fill="#42E8E0"/>
<path d="M469.226 186.196C469.402 186.196 469.564 186.155 469.727 186.061L488.158 175.425C488.469 175.249 488.658 174.911 488.658 174.56C488.658 174.208 488.469 173.87 488.158 173.695L469.727 163.059C469.416 162.883 469.037 162.883 468.726 163.059L450.294 173.695C449.983 173.87 449.794 174.208 449.794 174.56C449.794 174.911 449.983 175.249 450.294 175.425L468.726 186.061C468.875 186.155 469.05 186.196 469.226 186.196ZM485.67 174.56L469.226 184.047L452.783 174.56L469.226 165.072L485.67 174.56Z" fill="#42E8E0"/>
<path opacity="0.7" d="M429.848 164.018L448.293 153.382L429.848 142.746L411.417 153.382L429.848 164.018Z" fill="#42E8E0"/>
<path d="M429.848 165.018C430.024 165.018 430.186 164.978 430.348 164.883L448.78 154.247C449.091 154.071 449.28 153.733 449.28 153.382C449.28 153.031 449.091 152.693 448.78 152.517L430.348 141.881C430.037 141.705 429.659 141.705 429.348 141.881L410.916 152.517C410.605 152.693 410.416 153.031 410.416 153.382C410.416 153.733 410.605 154.071 410.916 154.247L429.348 164.883C429.496 164.978 429.672 165.018 429.848 165.018ZM446.292 153.382L429.848 162.869L413.404 153.382L429.848 143.895L446.292 153.382Z" fill="#42E8E0"/>
</g>
<defs>
<radialGradient id="paint0_radial_163_3097" cx="0" cy="0" r="1" gradientUnits="userSpaceOnUse" gradientTransform="translate(118.785 -132.365) rotate(29.9855) scale(126.365 109.906)">
<stop stop-color="#42E8E0"/>
<stop offset="0.15" stop-color="#33AEB8"/>
<stop offset="0.31" stop-color="#267A95"/>
<stop offset="0.47" stop-color="#1B4F78"/>
<stop offset="0.62" stop-color="#122E61"/>
<stop offset="0.76" stop-color="#0C1651"/>
<stop offset="0.89" stop-color="#090747"/>
<stop offset="1" stop-color="#080344"/>
</radialGradient>
<radialGradient id="paint1_radial_163_3097" cx="0" cy="0" r="1" gradientUnits="userSpaceOnUse" gradientTransform="translate(-64.3056 250.146) rotate(29.9855) scale(85.3702 74.2504)">
<stop stop-color="#42E8E0"/>
<stop offset="0.15" stop-color="#33AEB8"/>
<stop offset="0.31" stop-color="#267A95"/>
<stop offset="0.47" stop-color="#1B4F78"/>
<stop offset="0.62" stop-color="#122E61"/>
<stop offset="0.76" stop-color="#0C1651"/>
<stop offset="0.89" stop-color="#090747"/>
<stop offset="1" stop-color="#080344"/>
</radialGradient>
<linearGradient id="paint2_linear_163_3097" x1="508.037" y1="201.13" x2="391.335" y2="201.13" gradientUnits="userSpaceOnUse">
<stop stop-color="#5761D7"/>
<stop offset="0.07" stop-color="#5471D8"/>
<stop offset="0.28" stop-color="#4D9BDA"/>
<stop offset="0.48" stop-color="#48BDDD"/>
<stop offset="0.67" stop-color="#44D4DE"/>
<stop offset="0.85" stop-color="#42E3DF"/>
<stop offset="1" stop-color="#42E8E0"/>
</linearGradient>
<linearGradient id="paint3_linear_163_3097" x1="652" y1="188.805" x2="650.648" y2="188.805" gradientUnits="userSpaceOnUse">
<stop stop-color="#5761D7"/>
<stop offset="0.07" stop-color="#5471D8"/>
<stop offset="0.28" stop-color="#4D9BDA"/>
<stop offset="0.48" stop-color="#48BDDD"/>
<stop offset="0.67" stop-color="#44D4DE"/>
<stop offset="0.85" stop-color="#42E3DF"/>
<stop offset="1" stop-color="#42E8E0"/>
</linearGradient>
<linearGradient id="paint4_linear_163_3097" x1="652" y1="176.493" x2="650.648" y2="176.493" gradientUnits="userSpaceOnUse">
<stop stop-color="#5761D7"/>
<stop offset="0.07" stop-color="#5471D8"/>
<stop offset="0.28" stop-color="#4D9BDA"/>
<stop offset="0.48" stop-color="#48BDDD"/>
<stop offset="0.67" stop-color="#44D4DE"/>
<stop offset="0.85" stop-color="#42E3DF"/>
<stop offset="1" stop-color="#42E8E0"/>
</linearGradient>
<linearGradient id="paint5_linear_163_3097" x1="652" y1="164.181" x2="650.648" y2="164.181" gradientUnits="userSpaceOnUse">
<stop stop-color="#5761D7"/>
<stop offset="0.07" stop-color="#5471D8"/>
<stop offset="0.28" stop-color="#4D9BDA"/>
<stop offset="0.48" stop-color="#48BDDD"/>
<stop offset="0.67" stop-color="#44D4DE"/>
<stop offset="0.85" stop-color="#42E3DF"/>
<stop offset="1" stop-color="#42E8E0"/>
</linearGradient>
<linearGradient id="paint6_linear_163_3097" x1="508.037" y1="182.655" x2="391.335" y2="182.655" gradientUnits="userSpaceOnUse">
<stop stop-color="#5761D7"/>
<stop offset="0.07" stop-color="#5471D8"/>
<stop offset="0.28" stop-color="#4D9BDA"/>
<stop offset="0.48" stop-color="#48BDDD"/>
<stop offset="0.67" stop-color="#44D4DE"/>
<stop offset="0.85" stop-color="#42E3DF"/>
<stop offset="1" stop-color="#42E8E0"/>
</linearGradient>
<linearGradient id="paint7_linear_163_3097" x1="652" y1="164.181" x2="650.648" y2="164.181" gradientUnits="userSpaceOnUse">
<stop stop-color="#5761D7"/>
<stop offset="0.07" stop-color="#5471D8"/>
<stop offset="0.28" stop-color="#4D9BDA"/>
<stop offset="0.48" stop-color="#48BDDD"/>
<stop offset="0.67" stop-color="#44D4DE"/>
<stop offset="0.85" stop-color="#42E3DF"/>
<stop offset="1" stop-color="#42E8E0"/>
</linearGradient>
<linearGradient id="paint8_linear_163_3097" x1="508.037" y1="173.803" x2="391.335" y2="173.803" gradientUnits="userSpaceOnUse">
<stop stop-color="#5761D7"/>
<stop offset="0.07" stop-color="#5471D8"/>
<stop offset="0.28" stop-color="#4D9BDA"/>
<stop offset="0.48" stop-color="#48BDDD"/>
<stop offset="0.67" stop-color="#44D4DE"/>
<stop offset="0.85" stop-color="#42E3DF"/>
<stop offset="1" stop-color="#42E8E0"/>
</linearGradient>
<linearGradient id="paint9_linear_163_3097" x1="253.592" y1="316.87" x2="181.584" y2="316.87" gradientUnits="userSpaceOnUse">
<stop stop-color="#5761D7"/>
<stop offset="0.07" stop-color="#5471D8"/>
<stop offset="0.28" stop-color="#4D9BDA"/>
<stop offset="0.48" stop-color="#48BDDD"/>
<stop offset="0.67" stop-color="#44D4DE"/>
<stop offset="0.85" stop-color="#42E3DF"/>
<stop offset="1" stop-color="#42E8E0"/>
</linearGradient>
<linearGradient id="paint10_linear_163_3097" x1="253.592" y1="304.56" x2="181.584" y2="304.56" gradientUnits="userSpaceOnUse">
<stop stop-color="#5761D7"/>
<stop offset="0.07" stop-color="#5471D8"/>
<stop offset="0.28" stop-color="#4D9BDA"/>
<stop offset="0.48" stop-color="#48BDDD"/>
<stop offset="0.67" stop-color="#44D4DE"/>
<stop offset="0.85" stop-color="#42E3DF"/>
<stop offset="1" stop-color="#42E8E0"/>
</linearGradient>
<linearGradient id="paint11_linear_163_3097" x1="253.592" y1="292.234" x2="181.584" y2="292.234" gradientUnits="userSpaceOnUse">
<stop stop-color="#5761D7"/>
<stop offset="0.07" stop-color="#5471D8"/>
<stop offset="0.28" stop-color="#4D9BDA"/>
<stop offset="0.48" stop-color="#48BDDD"/>
<stop offset="0.67" stop-color="#44D4DE"/>
<stop offset="0.85" stop-color="#42E3DF"/>
<stop offset="1" stop-color="#42E8E0"/>
</linearGradient>
<linearGradient id="paint12_linear_163_3097" x1="253.592" y1="279.921" x2="181.584" y2="279.921" gradientUnits="userSpaceOnUse">
<stop stop-color="#5761D7"/>
<stop offset="0.07" stop-color="#5471D8"/>
<stop offset="0.28" stop-color="#4D9BDA"/>
<stop offset="0.48" stop-color="#48BDDD"/>
<stop offset="0.67" stop-color="#44D4DE"/>
<stop offset="0.85" stop-color="#42E3DF"/>
<stop offset="1" stop-color="#42E8E0"/>
</linearGradient>
<linearGradient id="paint13_linear_163_3097" x1="253.592" y1="298.396" x2="181.584" y2="298.396" gradientUnits="userSpaceOnUse">
<stop stop-color="#5761D7"/>
<stop offset="0.07" stop-color="#5471D8"/>
<stop offset="0.28" stop-color="#4D9BDA"/>
<stop offset="0.48" stop-color="#48BDDD"/>
<stop offset="0.67" stop-color="#44D4DE"/>
<stop offset="0.85" stop-color="#42E3DF"/>
<stop offset="1" stop-color="#42E8E0"/>
</linearGradient>
<linearGradient id="paint14_linear_163_3097" x1="253.592" y1="279.921" x2="181.584" y2="279.921" gradientUnits="userSpaceOnUse">
<stop stop-color="#5761D7"/>
<stop offset="0.07" stop-color="#5471D8"/>
<stop offset="0.28" stop-color="#4D9BDA"/>
<stop offset="0.48" stop-color="#48BDDD"/>
<stop offset="0.67" stop-color="#44D4DE"/>
<stop offset="0.85" stop-color="#42E3DF"/>
<stop offset="1" stop-color="#42E8E0"/>
</linearGradient>
<linearGradient id="paint15_linear_163_3097" x1="253.592" y1="289.151" x2="181.584" y2="289.151" gradientUnits="userSpaceOnUse">
<stop stop-color="#5761D7"/>
<stop offset="0.07" stop-color="#5471D8"/>
<stop offset="0.28" stop-color="#4D9BDA"/>
<stop offset="0.48" stop-color="#48BDDD"/>
<stop offset="0.67" stop-color="#44D4DE"/>
<stop offset="0.85" stop-color="#42E3DF"/>
<stop offset="1" stop-color="#42E8E0"/>
</linearGradient>
<linearGradient id="paint16_linear_163_3097" x1="253.592" y1="164.99" x2="181.584" y2="164.99" gradientUnits="userSpaceOnUse">
<stop stop-color="#5761D7"/>
<stop offset="0.07" stop-color="#5471D8"/>
<stop offset="0.28" stop-color="#4D9BDA"/>
<stop offset="0.48" stop-color="#48BDDD"/>
<stop offset="0.67" stop-color="#44D4DE"/>
<stop offset="0.85" stop-color="#42E3DF"/>
<stop offset="1" stop-color="#42E8E0"/>
</linearGradient>
<linearGradient id="paint17_linear_163_3097" x1="253.592" y1="152.679" x2="181.584" y2="152.679" gradientUnits="userSpaceOnUse">
<stop stop-color="#5761D7"/>
<stop offset="0.07" stop-color="#5471D8"/>
<stop offset="0.28" stop-color="#4D9BDA"/>
<stop offset="0.48" stop-color="#48BDDD"/>
<stop offset="0.67" stop-color="#44D4DE"/>
<stop offset="0.85" stop-color="#42E3DF"/>
<stop offset="1" stop-color="#42E8E0"/>
</linearGradient>
<linearGradient id="paint18_linear_163_3097" x1="253.592" y1="140.367" x2="181.584" y2="140.367" gradientUnits="userSpaceOnUse">
<stop stop-color="#5761D7"/>
<stop offset="0.07" stop-color="#5471D8"/>
<stop offset="0.28" stop-color="#4D9BDA"/>
<stop offset="0.48" stop-color="#48BDDD"/>
<stop offset="0.67" stop-color="#44D4DE"/>
<stop offset="0.85" stop-color="#42E3DF"/>
<stop offset="1" stop-color="#42E8E0"/>
</linearGradient>
<linearGradient id="paint19_linear_163_3097" x1="253.592" y1="128.041" x2="181.584" y2="128.041" gradientUnits="userSpaceOnUse">
<stop stop-color="#5761D7"/>
<stop offset="0.07" stop-color="#5471D8"/>
<stop offset="0.28" stop-color="#4D9BDA"/>
<stop offset="0.48" stop-color="#48BDDD"/>
<stop offset="0.67" stop-color="#44D4DE"/>
<stop offset="0.85" stop-color="#42E3DF"/>
<stop offset="1" stop-color="#42E8E0"/>
</linearGradient>
<linearGradient id="paint20_linear_163_3097" x1="253.592" y1="146.516" x2="181.584" y2="146.516" gradientUnits="userSpaceOnUse">
<stop stop-color="#5761D7"/>
<stop offset="0.07" stop-color="#5471D8"/>
<stop offset="0.28" stop-color="#4D9BDA"/>
<stop offset="0.48" stop-color="#48BDDD"/>
<stop offset="0.67" stop-color="#44D4DE"/>
<stop offset="0.85" stop-color="#42E3DF"/>
<stop offset="1" stop-color="#42E8E0"/>
</linearGradient>
<linearGradient id="paint21_linear_163_3097" x1="253.592" y1="128.041" x2="181.584" y2="128.041" gradientUnits="userSpaceOnUse">
<stop stop-color="#5761D7"/>
<stop offset="0.07" stop-color="#5471D8"/>
<stop offset="0.28" stop-color="#4D9BDA"/>
<stop offset="0.48" stop-color="#48BDDD"/>
<stop offset="0.67" stop-color="#44D4DE"/>
<stop offset="0.85" stop-color="#42E3DF"/>
<stop offset="1" stop-color="#42E8E0"/>
</linearGradient>
<linearGradient id="paint22_linear_163_3097" x1="253.592" y1="137.285" x2="181.584" y2="137.285" gradientUnits="userSpaceOnUse">
<stop stop-color="#5761D7"/>
<stop offset="0.07" stop-color="#5471D8"/>
<stop offset="0.28" stop-color="#4D9BDA"/>
<stop offset="0.48" stop-color="#48BDDD"/>
<stop offset="0.67" stop-color="#44D4DE"/>
<stop offset="0.85" stop-color="#42E3DF"/>
<stop offset="1" stop-color="#42E8E0"/>
</linearGradient>
<linearGradient id="paint23_linear_163_3097" x1="390.226" y1="245.782" x2="230.022" y2="245.782" gradientUnits="userSpaceOnUse">
<stop stop-color="#5761D7"/>
<stop offset="0.07" stop-color="#5471D8"/>
<stop offset="0.28" stop-color="#4D9BDA"/>
<stop offset="0.48" stop-color="#48BDDD"/>
<stop offset="0.67" stop-color="#44D4DE"/>
<stop offset="0.85" stop-color="#42E3DF"/>
<stop offset="1" stop-color="#42E8E0"/>
</linearGradient>
<linearGradient id="paint24_linear_163_3097" x1="390.226" y1="233.457" x2="230.022" y2="233.457" gradientUnits="userSpaceOnUse">
<stop stop-color="#5761D7"/>
<stop offset="0.07" stop-color="#5471D8"/>
<stop offset="0.28" stop-color="#4D9BDA"/>
<stop offset="0.48" stop-color="#48BDDD"/>
<stop offset="0.67" stop-color="#44D4DE"/>
<stop offset="0.85" stop-color="#42E3DF"/>
<stop offset="1" stop-color="#42E8E0"/>
</linearGradient>
<linearGradient id="paint25_linear_163_3097" x1="390.226" y1="221.145" x2="230.022" y2="221.145" gradientUnits="userSpaceOnUse">
<stop stop-color="#5761D7"/>
<stop offset="0.07" stop-color="#5471D8"/>
<stop offset="0.28" stop-color="#4D9BDA"/>
<stop offset="0.48" stop-color="#48BDDD"/>
<stop offset="0.67" stop-color="#44D4DE"/>
<stop offset="0.85" stop-color="#42E3DF"/>
<stop offset="1" stop-color="#42E8E0"/>
</linearGradient>
<linearGradient id="paint26_linear_163_3097" x1="390.226" y1="208.833" x2="230.022" y2="208.833" gradientUnits="userSpaceOnUse">
<stop stop-color="#5761D7"/>
<stop offset="0.07" stop-color="#5471D8"/>
<stop offset="0.28" stop-color="#4D9BDA"/>
<stop offset="0.48" stop-color="#48BDDD"/>
<stop offset="0.67" stop-color="#44D4DE"/>
<stop offset="0.85" stop-color="#42E3DF"/>
<stop offset="1" stop-color="#42E8E0"/>
</linearGradient>
<linearGradient id="paint27_linear_163_3097" x1="390.227" y1="227.308" x2="230.022" y2="227.308" gradientUnits="userSpaceOnUse">
<stop stop-color="#5761D7"/>
<stop offset="0.07" stop-color="#5471D8"/>
<stop offset="0.28" stop-color="#4D9BDA"/>
<stop offset="0.48" stop-color="#48BDDD"/>
<stop offset="0.67" stop-color="#44D4DE"/>
<stop offset="0.85" stop-color="#42E3DF"/>
<stop offset="1" stop-color="#42E8E0"/>
</linearGradient>
<linearGradient id="paint28_linear_163_3097" x1="390.226" y1="208.833" x2="230.022" y2="208.833" gradientUnits="userSpaceOnUse">
<stop stop-color="#5761D7"/>
<stop offset="0.07" stop-color="#5471D8"/>
<stop offset="0.28" stop-color="#4D9BDA"/>
<stop offset="0.48" stop-color="#48BDDD"/>
<stop offset="0.67" stop-color="#44D4DE"/>
<stop offset="0.85" stop-color="#42E3DF"/>
<stop offset="1" stop-color="#42E8E0"/>
</linearGradient>
<linearGradient id="paint29_linear_163_3097" x1="390.227" y1="231.025" x2="230.036" y2="231.025" gradientUnits="userSpaceOnUse">
<stop stop-color="#5761D7"/>
<stop offset="0.07" stop-color="#5471D8"/>
<stop offset="0.28" stop-color="#4D9BDA"/>
<stop offset="0.48" stop-color="#48BDDD"/>
<stop offset="0.67" stop-color="#44D4DE"/>
<stop offset="0.85" stop-color="#42E3DF"/>
<stop offset="1" stop-color="#42E8E0"/>
</linearGradient>
<clipPath id="clip0_163_3097">
<rect width="652" height="409" fill="white" transform="matrix(-1 0 0 1 652 0.664062)"/>
</clipPath>
</defs>
</svg>
