<svg width="103" height="50" viewBox="0 0 103 50" fill="none" xmlns="http://www.w3.org/2000/svg">
<path fill-rule="evenodd" clip-rule="evenodd" d="M23.3722 1.14601C24.3419 1.23613 25.3027 1.32541 26.2457 1.39894C33.0624 1.93045 39.9791 3.04415 44.5395 8.13167C49.4191 13.5753 52.1537 21.118 50.2437 28.1708C48.5132 34.5608 42.4003 37.9224 36.5507 41.1391C36.177 41.3447 35.8044 41.5496 35.434 41.7547C34.3348 42.3634 33.2247 43.0204 32.1055 43.6828C26.1968 47.1798 20.0355 50.8264 13.904 48.2939C6.37862 45.1856 4.25599 36.0548 2.44017 28.1269C0.622887 20.1925 -1.43575 11.0509 3.98093 4.96924C8.60812 -0.225997 16.2341 0.482674 23.3722 1.14601ZM10.3337 18.7964L14.8299 32.4042C15.3296 33.9166 16.9627 34.7357 18.4745 34.2324L29.4276 30.5854C32.2946 29.6308 35.451 30.2173 37.7827 32.138C38.3303 32.589 39.1269 32.0422 38.9027 31.3693L33.8536 16.2184C33.29 14.5271 31.4562 13.6187 29.7683 14.1948L13.5741 19.7215C12.0245 20.0969 11.3344 19.8979 10.3337 18.7964Z" fill="white"/>
<path d="M25.8328 15.8232C25.3947 14.4786 24.9504 13.1154 24.5123 11.7707C24.4999 11.7337 24.4937 11.7152 24.4814 11.6782C24.2593 11.0429 24.0248 10.4014 23.8026 9.76608C23.309 8.40908 22.55 7.82935 21.0998 7.73705C21.0813 7.74323 21.0566 7.73089 21.0381 7.73706C20.1989 7.8729 19.4893 8.27397 18.8845 8.86624C18.2427 9.5017 17.5516 10.1125 16.8975 10.7418C15.0339 12.5248 13.1888 14.3633 11.282 16.1093C10.3132 16.9977 9.91823 17.9416 10.4983 19.1875C10.56 19.28 10.6279 19.3602 10.6896 19.4219C11.319 20.1373 12.1212 20.3223 13.0962 20.1309C14.0033 19.9519 14.8487 19.6186 15.7126 19.3101C19.0942 18.1622 22.4573 16.9896 25.8328 15.8232Z" fill="#535353"/>
<path d="M67.8397 27.8932C67.6125 27.8131 67.3927 27.7319 67.1783 27.6528C66.545 27.4189 65.9594 27.2027 65.3718 27.0818C64.6162 26.9264 64.0345 26.9729 63.5543 27.287C63.0299 27.6301 62.7129 28.1799 62.5229 28.9369C62.3291 29.7094 62.2923 30.5938 62.2592 31.5153C62.2261 32.4361 62.1992 33.3207 62.3371 34.1055C62.4721 34.8745 62.749 35.4469 63.2485 35.8281C63.699 36.1721 64.2659 36.2531 65.0314 36.1462C65.569 36.0712 66.0886 35.9264 66.6543 35.7688C66.9457 35.6877 67.2493 35.6031 67.5739 35.5228C67.6684 35.4995 67.7617 35.4767 67.8539 35.4541C68.5394 35.2865 69.1609 35.1344 69.7151 34.8992C70.3241 34.6406 70.7638 34.315 71.0381 33.844C71.6779 32.7454 71.5906 31.2733 70.9396 29.9949C70.4116 28.9581 69.2888 28.4045 67.8397 27.8932Z" stroke="white" stroke-width="1.64"/>
<path d="M80.3831 30.4124C79.7703 29.5577 78.8155 29.0449 77.6897 29.0449C75.5663 29.0449 74.0557 30.6831 74.0557 32.948C74.0557 35.2129 75.5663 36.8511 77.6897 36.8511C78.8155 36.8511 79.7703 36.3383 80.3831 35.4836V35.7895C80.3831 36.2184 80.7309 36.5662 81.1598 36.5662C81.5888 36.5662 81.9365 36.2184 81.9365 35.7895V30.1065C81.9365 29.6776 81.5888 29.3298 81.1598 29.3298C80.7309 29.3298 80.3831 29.6776 80.3831 30.1065V30.4124ZM77.989 35.4836C76.6066 35.4836 75.5948 34.401 75.5948 32.948C75.5948 31.4808 76.6066 30.4124 77.989 30.4124C79.3713 30.4124 80.3689 31.4808 80.3689 32.948C80.3689 34.4152 79.3713 35.4836 77.989 35.4836Z" fill="white"/>
<path d="M85.5399 35.5833C86.1527 36.381 87.079 36.8511 88.1621 36.8511C90.2713 36.8511 91.7961 35.2129 91.7961 32.948C91.7961 30.6831 90.257 29.0449 88.1621 29.0449C87.0505 29.0449 86.11 29.5292 85.4972 30.3412V30.0851C85.4972 29.668 85.159 29.3298 84.7419 29.3298C84.3247 29.3298 83.9865 29.668 83.9865 30.0851V39.0658C83.9865 39.4948 84.3343 39.8425 84.7632 39.8425C85.1922 39.8425 85.5399 39.4948 85.5399 39.0658V35.5833ZM90.257 32.948C90.257 34.3725 89.2452 35.3981 87.8628 35.3981C86.4805 35.3981 85.4829 34.3725 85.4829 32.948C85.4829 31.5235 86.4805 30.4979 87.8628 30.4979C89.2309 30.4979 90.257 31.5093 90.257 32.948Z" fill="white"/>
<path d="M95.0592 35.5833C95.672 36.381 96.5983 36.8511 97.6814 36.8511C99.7905 36.8511 101.315 35.2129 101.315 32.948C101.315 30.6831 99.7763 29.0449 97.6814 29.0449C96.5698 29.0449 95.6292 29.5292 95.0164 30.3412V30.0851C95.0164 29.668 94.6783 29.3298 94.2611 29.3298C93.844 29.3298 93.5058 29.668 93.5058 30.0851V39.0658C93.5058 39.4948 93.8535 39.8425 94.2825 39.8425C94.7114 39.8425 95.0592 39.4948 95.0592 39.0658V35.5833ZM99.7763 32.948C99.7763 34.3725 98.7645 35.3981 97.3821 35.3981C95.9998 35.3981 95.0022 34.3725 95.0022 32.948C95.0022 31.5235 95.9998 30.4979 97.3821 30.4979C98.7502 30.4979 99.7763 31.5093 99.7763 32.948Z" fill="white"/>
<path d="M65.7103 20.7054C68.1526 20.7054 69.6914 19.3026 69.6914 17.4181C69.6914 13.5072 63.2116 15.321 63.2116 12.9263C63.2116 12.0336 64.0868 11.3676 65.4421 11.3676C66.5661 11.3676 67.4445 11.896 67.766 12.7028C67.9136 13.0731 68.2217 13.4081 68.6203 13.4081C69.0861 13.4081 69.4748 13.0223 69.3554 12.572C68.9438 11.0193 67.4176 9.96484 65.428 9.96484C63.0986 9.96484 61.5316 11.2826 61.5316 13.1672C61.5316 17.0496 68.0114 15.2076 68.0114 17.6731C68.0114 18.5658 67.1785 19.3026 65.7527 19.3026C64.4931 19.3026 63.5276 18.7298 63.1674 17.8627C62.9968 17.4523 62.6536 17.078 62.2092 17.078C61.7648 17.078 61.3939 17.4434 61.4963 17.8758C61.8932 19.5521 63.5411 20.7054 65.7103 20.7054Z" fill="white"/>
<path d="M74.3492 20.6346C75.2669 20.6346 76.1704 20.1811 76.6645 19.4301V19.5959C76.6645 20.013 77.0026 20.3512 77.4197 20.3512C77.8369 20.3512 78.175 20.013 78.175 19.5959V13.9153C78.175 13.4943 77.8337 13.153 77.4127 13.153C76.9917 13.153 76.6503 13.4943 76.6503 13.9153V17.2905C76.6503 18.4383 75.7468 19.2743 74.688 19.2743C73.601 19.2743 72.9798 18.4949 72.9798 17.4322V13.9224C72.9798 13.4975 72.6354 13.153 72.2105 13.153C71.7855 13.153 71.4411 13.4975 71.4411 13.9224V17.5456C71.4411 19.3309 72.5846 20.6346 74.3492 20.6346Z" fill="white"/>
<path d="M81.7513 19.3735C82.3584 20.167 83.276 20.6346 84.3489 20.6346C86.4383 20.6346 87.9488 19.005 87.9488 16.7521C87.9488 14.4991 86.4242 12.8696 84.3489 12.8696C83.2478 12.8696 82.316 13.3514 81.709 14.159V13.9012C81.709 13.488 81.374 13.153 80.9608 13.153C80.5475 13.153 80.2125 13.488 80.2125 13.9012V22.8408C80.2125 23.2657 80.557 23.6102 80.9819 23.6102C81.4069 23.6102 81.7513 23.2657 81.7513 22.8408V19.3735ZM86.4242 16.7521C86.4242 18.169 85.4218 19.1893 84.0524 19.1893C82.6831 19.1893 81.6949 18.169 81.6949 16.7521C81.6949 15.3351 82.6831 14.3149 84.0524 14.3149C85.4077 14.3149 86.4242 15.321 86.4242 16.7521Z" fill="white"/>
<path d="M93.1577 19.3451C91.9718 19.3451 91.0683 18.4949 90.8848 17.2197H96.3876C96.6931 17.2197 96.9552 16.9867 96.9552 16.6812C96.9552 14.4566 95.3741 12.8696 93.1435 12.8696C90.913 12.8696 89.3036 14.4566 89.3036 16.6671C89.3036 18.9767 90.9271 20.6346 93.1859 20.6346C94.4305 20.6346 95.5935 20.0884 96.2242 19.2662C96.476 18.9379 96.2643 18.5011 95.8716 18.3711C95.522 18.2554 95.1447 18.4276 94.8768 18.6802C94.4538 19.079 93.8205 19.3451 93.1577 19.3451ZM90.8848 16.0861C91.0965 14.9384 91.9436 14.159 93.1012 14.159C94.287 14.159 95.1906 14.9525 95.36 16.0861H90.8848Z" fill="white"/>
<path d="M102.076 12.898C101.257 12.898 100.565 13.3372 100.127 14.074V13.8942C100.127 13.4848 99.7955 13.153 99.3862 13.153C98.9768 13.153 98.645 13.4848 98.645 13.8942V19.5818C98.645 20.0067 98.9895 20.3512 99.4144 20.3512C99.8393 20.3512 100.184 20.0067 100.184 19.5818V16.412C100.184 15.1367 100.847 14.2157 101.878 14.2157C101.934 14.2157 101.996 14.2185 102.062 14.2242C102.507 14.2629 102.979 13.953 102.979 13.5065C102.979 13.2509 102.823 13.0154 102.573 12.9587C102.402 12.9198 102.232 12.898 102.076 12.898Z" fill="white"/>
</svg>
