<svg width="181" height="38" viewBox="0 0 181 38" fill="none" xmlns="http://www.w3.org/2000/svg">
<path fill-rule="evenodd" clip-rule="evenodd" d="M34.1358 31.7629C33.1077 32.6593 31.9398 33.4652 30.6568 34.1724C30.8953 33.9833 30.1468 33.1938 30.3771 32.9965C36.0357 28.0788 37.327 21.7467 35.0405 16.1711C34.7362 15.4228 35.3778 15.1185 35.386 14.4277C40.6005 19.3619 40.0412 26.6315 34.1358 31.7629Z" fill="white"/>
<path fill-rule="evenodd" clip-rule="evenodd" d="M35.3951 14.4376C33.4781 12.6284 30.796 11.1399 27.3158 10.186C27.2994 10.1777 27.2829 10.1777 27.2747 10.1777C27.2911 10.186 27.3076 10.186 27.324 10.1942C28.4676 10.4902 28.5581 11.8143 29.3397 12.4804C31.0263 13.9113 31.4871 15.7452 31.6598 18.163C31.9149 21.7649 31.8984 25.3258 29.2657 28.4919C27.8835 30.1531 26.1393 31.6663 24.0825 32.5545C23.9344 32.6202 23.7863 32.686 23.6217 32.7518C23.5971 32.7601 23.5806 32.7683 23.5559 32.7765C22.5687 33.1712 21.4662 33.5002 20.2485 33.7222C15.9786 34.5282 10.3428 34.191 3.51416 32.0281C6.23741 34.1252 9.15811 35.5232 12.1117 36.3374C15.3368 37.2255 18.5949 37.4064 21.6719 37.0364C21.6801 37.0364 21.6883 37.0364 21.6966 37.0282C22.1573 36.9788 22.6098 36.913 23.0541 36.8308C24.8476 36.5183 26.5589 36.0166 28.155 35.367H28.1632C29.0271 35.0133 29.8663 34.6186 30.6643 34.1745C30.9029 33.9854 31.1415 33.788 31.3637 33.5906C37.7892 28.015 39.2454 20.4327 35.3951 14.4376Z" fill="white"/>
<path fill-rule="evenodd" clip-rule="evenodd" d="M23.6199 32.7561C31.5979 29.5078 32.0256 21.2678 22.7563 16.6297C16.0202 13.2581 18.9976 7.91278 27.3128 10.1907C36.6068 12.6331 33.8597 28.8088 23.6199 32.7561Z" fill="white"/>
<path fill-rule="evenodd" clip-rule="evenodd" d="M36.002 5.73666C27.2317 2.94882 20.4277 3.18731 15.9685 4.9883C15.9438 4.99653 15.9273 5.00475 15.9026 5.01298C9.26318 7.71035 7.84808 13.8617 12.8997 18.5245C11.5668 17.4226 10.053 16.2548 9.39482 14.7581C8.55563 12.8584 8.30059 10.4982 8.63791 8.51628C9.09041 5.84357 10.7852 3.4258 13.5743 1.95375C14.685 1.36987 16.3551 0.942238 17.8525 0.720197C23.7515 0.0211818 30.3004 1.32875 36.002 5.73666Z" fill="white"/>
<path fill-rule="evenodd" clip-rule="evenodd" d="M14.377 28.0127C13.8013 27.8235 13.1515 27.7331 12.6169 27.5192C5.84793 24.8055 2.22905 19.7398 2.36064 14.7399C2.45112 11.1873 4.5402 7.59362 7.94524 4.62493C8.90754 3.78613 10.1824 3.0789 11.3503 2.3799H11.3585C12.9541 1.73024 14.6649 1.22861 16.4578 0.916115C16.9102 0.842103 17.3708 0.768091 17.8396 0.71875C17.2885 0.800985 16.7704 0.907891 16.2687 1.04769C7.51756 3.43252 6.99117 13.6297 12.8965 18.5227H12.9048C13.9246 19.4602 15.2077 20.3483 16.7622 21.1213C22.8649 24.1887 20.9897 28.8679 14.377 28.0127Z" fill="white"/>
<path fill-rule="evenodd" clip-rule="evenodd" d="M14.3768 28.0156C13.7024 27.9251 12.9704 27.7853 12.2055 27.5715C-0.781384 24.0272 -2.6813 12.9994 5.37894 5.98472C7.04034 4.53738 9.07185 3.30385 11.3501 2.38281C10.1822 3.08181 9.09653 3.85483 8.13423 4.6854C-0.452396 12.1606 1.25835 23.7722 14.3768 28.0156Z" fill="white"/>
<path d="M52.0063 22.6677C52.0063 22.6677 54.0878 24.1974 56.663 24.1974C58.58 24.1974 59.3452 23.4326 59.3452 22.4375C59.3452 21.4095 58.6623 20.8832 55.9308 20.1266C52.3518 19.1315 50.4842 17.865 50.4842 15.3403C50.4842 12.5278 52.5904 10.661 56.6383 10.661C60.8755 10.661 62.6115 12.2893 62.6115 12.2893L60.8919 14.888C60.8919 14.888 59.2053 13.5722 56.6301 13.5722C54.8941 13.5722 54.0549 14.1808 54.0549 15.1512C54.0549 16.0969 54.8694 16.5163 57.3459 17.1989C61.2128 18.2269 62.9735 19.592 62.9735 22.1414C62.9735 24.9046 61.0565 27.1086 56.7371 27.1086C52.3929 27.1086 50.2703 25.0855 50.2703 25.0855L52.0063 22.6677ZM80.0619 10.9982H83.7478L77.7747 20.7516V26.7714H74.5907V20.7269L68.6751 10.9982H72.3528L75.6109 16.4917L76.0634 17.495H76.3514L76.8203 16.4917L80.0619 10.9982ZM90.9798 22.6677C90.9798 22.6677 93.0614 24.1974 95.6366 24.1974C97.5536 24.1974 98.3187 23.4326 98.3187 22.4375C98.3187 21.4095 97.6358 20.8832 94.8961 20.1266C91.3171 19.1315 89.4495 17.865 89.4495 15.3403C89.4495 12.5278 91.5557 10.661 95.6036 10.661C99.8408 10.661 101.577 12.2893 101.577 12.2893L99.8655 14.8962C99.8655 14.8962 98.1788 13.5804 95.6036 13.5804C93.8676 13.5804 93.0284 14.189 93.0284 15.1594C93.0284 16.1051 93.843 16.5246 96.3194 17.2071C100.186 18.2351 101.947 19.6003 101.947 22.1496C101.947 24.9128 100.03 27.1168 95.7106 27.1168C91.3665 27.1168 89.2356 25.0938 89.2356 25.0938L90.9798 22.6677ZM122.902 25.1678C122.902 25.1678 121.142 27.1086 117.324 27.1086C112.166 27.1086 108.932 23.4243 108.932 18.8766C108.932 14.3288 112.166 10.6445 117.324 10.6445C121.166 10.6445 122.902 12.5936 122.902 12.5936L121.084 15.036C121.084 15.036 119.455 13.6956 117.374 13.6956C114.346 13.6956 112.215 15.8749 112.215 18.8766C112.215 21.87 114.346 24.0822 117.374 24.0822C119.768 24.0822 121.084 22.7171 121.084 22.7171L122.902 25.1678ZM129.139 18.8848C129.139 14.337 132.323 10.6528 137.473 10.6528C142.657 10.6528 145.841 14.337 145.841 18.8848C145.841 23.4326 142.657 27.1168 137.473 27.1168C132.315 27.1086 129.139 23.4326 129.139 18.8848ZM142.574 18.8848C142.574 15.8913 140.443 13.7038 137.473 13.7038C134.528 13.7038 132.422 15.8831 132.422 18.8848C132.422 21.8783 134.528 24.0658 137.473 24.0658C140.443 24.0576 142.574 21.8783 142.574 18.8848ZM157.096 26.7714H153.912V10.9982H157.096V26.7714ZM180.684 26.7714H179.919L169.346 17.1496V26.7714H166.162V10.9982H166.952L177.525 20.4062V11.0228H180.684V26.7714Z" fill="white"/>
</svg>
