<svg width="24" height="24" viewBox="0 0 24 24" fill="none" xmlns="http://www.w3.org/2000/svg">
<g clip-path="url(#clip0_882_9779)">
<path d="M12.0131 0C18.6377 0 24.0087 5.37976 24.0087 12.0131C24.0087 18.6376 18.629 24.0087 11.987 24.0087C5.35366 24 -0.00869453 18.6115 1.05838e-05 11.9695C0.0087157 5.36235 5.38848 0 12.0131 0Z" fill="#377DF5"/>
<path d="M7.91292 4.16971C8.37429 3.96079 8.86178 3.80409 9.34927 3.67352C10.1763 3.44718 11.0206 3.31661 11.8737 3.27308C13.8672 3.16862 15.7736 3.53423 17.5756 4.39604C18.3155 4.74425 19.0032 5.1708 19.6474 5.66699C19.6648 5.67569 19.6822 5.6931 19.6909 5.71922C19.5691 5.6844 19.4472 5.64087 19.3166 5.60605C18.2633 5.28396 17.2013 5.04022 16.1131 4.88353C15.2078 4.75295 14.2938 4.70072 13.3797 4.73554C12.3264 4.77907 11.2992 4.94446 10.3155 5.31878C9.56689 5.60605 8.88789 5.98908 8.32206 6.56361C7.83458 7.05981 7.48637 7.63434 7.34709 8.32205C7.1991 9.03587 7.32097 9.71487 7.63436 10.3677C8.01738 11.1686 8.61804 11.7693 9.31445 12.3003C9.79323 12.6572 10.3242 12.9271 10.8465 13.2056C11.334 13.4755 11.778 13.8063 12.0827 14.2851C12.3438 14.6942 12.4396 15.1294 12.1784 15.5821C12.0217 15.8433 11.778 16.0174 11.5081 16.1392C10.9771 16.3743 10.42 16.4091 9.85416 16.383C9.68877 16.3743 9.53207 16.3656 9.36668 16.3308C9.10552 16.2698 8.85307 16.1741 8.60933 16.0696C8.11314 15.8694 7.63436 15.6343 7.18169 15.3645C6.70291 15.0685 6.25024 14.7464 5.8411 14.3634C5.22304 13.7976 4.73556 13.1447 4.38735 12.3873C4.16102 11.8911 4.01303 11.3688 3.95209 10.8291C3.92598 10.6115 3.90857 10.4026 3.90857 10.1849C3.92598 9.49724 4.04785 8.82694 4.3003 8.18277C4.60498 7.3906 5.05764 6.68549 5.61477 6.05872C6.13708 5.46677 6.72903 4.95317 7.38191 4.51791C7.56472 4.37863 7.73011 4.27417 7.91292 4.16971Z" fill="#FEFEFE"/>
<path d="M16.174 8.03486C16.7312 8.20026 17.2622 8.43529 17.7758 8.70515C18.4548 9.07077 19.0815 9.51473 19.6213 10.0719C20.3873 10.864 20.9009 11.7868 21.0663 12.8923C21.2317 13.963 21.0315 14.9728 20.5614 15.9391C20.0217 17.0272 19.2121 17.889 18.2459 18.6029C17.2099 19.3602 16.0609 19.8912 14.8247 20.2481C14.0674 20.4658 13.2926 20.6137 12.5005 20.6747C11.0554 20.7966 9.6365 20.666 8.24368 20.2742C6.79863 19.8651 5.49286 19.1948 4.30026 18.2895C4.29156 18.2808 4.28285 18.2721 4.26544 18.2547C4.51789 18.333 4.74422 18.4027 4.97926 18.4636C5.99776 18.7596 7.03367 18.9772 8.08699 19.1165C9.23606 19.2645 10.3851 19.2993 11.5429 19.16C12.5962 19.0294 13.606 18.7683 14.5375 18.2547C14.7638 18.1328 14.9814 17.9761 15.1904 17.8281C15.3471 17.7498 15.4689 17.6279 15.5908 17.5147C16.0609 17.1056 16.4874 16.6616 16.8356 16.148C17.2709 15.53 17.6104 14.8597 17.8541 14.1371C18.0369 13.5887 18.1675 13.0316 18.2197 12.4571C18.3068 11.5865 18.2284 10.7247 17.8889 9.90646C17.5582 9.09688 17.001 8.47882 16.2089 8.09579C16.1827 8.07838 16.1392 8.07838 16.1479 8.02615H16.1566C16.174 8.02615 16.174 8.03486 16.174 8.03486Z" fill="#FEFEFE"/>
<path d="M16.1741 8.03478C16.2263 8.11313 16.3133 8.12184 16.3917 8.16536C17.0098 8.49616 17.4624 8.99235 17.7845 9.6017C18.0108 10.037 18.1414 10.4983 18.2198 10.9858C18.2807 11.3601 18.2981 11.7432 18.2807 12.1262C18.2633 12.5963 18.1849 13.0576 18.0718 13.519C17.8716 14.3199 17.5582 15.0685 17.1229 15.7649C16.7573 16.3569 16.3133 16.8879 15.8084 17.3667C15.6343 17.5321 15.4515 17.6801 15.2513 17.8193C15.2252 17.8367 15.2078 17.8454 15.1904 17.828C15.4341 17.6191 15.6779 17.4189 15.8868 17.1664C16.4178 16.531 16.7138 15.8085 16.6964 14.9815C16.679 14.2676 16.4265 13.6235 16.0174 13.0402C15.5299 12.3351 14.8944 11.8041 14.1806 11.3514C13.7802 11.099 13.3449 10.9075 12.9445 10.6637C12.5179 10.3939 12.1262 10.0892 11.865 9.64523C11.6561 9.29703 11.5778 8.94012 11.7345 8.54839C11.865 8.2263 12.1175 8.02608 12.4135 7.87809C12.753 7.71269 13.1186 7.63435 13.5016 7.60823C14.4156 7.53859 15.3036 7.73011 16.1741 8.03478C16.1741 8.02608 16.1741 8.02608 16.1741 8.03478Z" fill="#E0E0E0"/>
<path d="M7.91295 4.16977C7.86943 4.23071 7.79979 4.24812 7.74755 4.29164C7.36453 4.53538 6.99021 4.79654 6.6333 5.09251C6.24157 5.42331 5.88466 5.78022 5.54516 6.17195C5.10991 6.68555 4.74429 7.23397 4.47443 7.84333C4.2568 8.3134 4.10882 8.80089 4.02177 9.31449C3.97824 9.59305 3.94342 9.88032 3.94342 10.1589C3.94342 10.8727 4.0827 11.5604 4.35256 12.222C4.5876 12.7791 4.90969 13.2927 5.30142 13.7541C5.85855 14.4157 6.52884 14.938 7.27748 15.3733C7.86072 15.7215 8.48749 16 9.13167 16.2176C9.21001 16.2438 9.28836 16.2786 9.36671 16.3134C9.04462 16.2873 8.73123 16.2089 8.41785 16.1219C7.41676 15.852 6.45049 15.469 5.57998 14.8945C4.5876 14.2503 3.77802 13.432 3.28183 12.3439C2.93363 11.5865 2.80305 10.7857 2.87269 9.95867C2.97715 8.76607 3.45593 7.73887 4.19587 6.81612C4.9271 5.9195 5.83243 5.23179 6.85093 4.67467C7.19043 4.48315 7.53863 4.30905 7.91295 4.16977Z" fill="#E0E0E0"/>
</g>
<defs>
<clipPath id="clip0_882_9779">
<rect width="24" height="24" fill="white"/>
</clipPath>
</defs>
</svg>
