<svg width="45" height="45" viewBox="0 0 45 45" fill="none" xmlns="http://www.w3.org/2000/svg">
  <path
    d="M22.5 45C34.9264 45 45 34.9264 45 22.5C45 10.0736 34.9264 0 22.5 0C10.0736 0 0 10.0736 0 22.5C0 34.9264 10.0736 45 22.5 45Z"
    fill="#26A17B" />
  <path
    d="M25.0715 18.6737V15.5728H32.1616V10.8496H12.8571V15.5728H19.9471V18.6702C14.1851 18.9348 9.85254 20.0753 9.85254 21.4435C9.85254 22.8118 14.1868 23.9523 19.9471 24.2186V34.1485H25.0733V24.2168C30.8249 23.9505 35.1486 22.8118 35.1486 21.4453C35.1486 20.0788 30.8249 18.9383 25.0733 18.6737M25.0733 23.3759C24.9279 23.3829 24.1851 23.4267 22.5312 23.4267C21.2085 23.4267 20.2783 23.3899 19.9489 23.3724V23.3759C14.8578 23.1499 11.0579 22.2634 11.0579 21.2035C11.0579 20.1436 14.8578 19.2571 19.9489 19.0311V22.4929C20.2818 22.5157 21.2366 22.5718 22.5523 22.5718C24.1325 22.5718 24.9279 22.5052 25.0733 22.4929V19.0311C30.1539 19.2571 33.945 20.1453 33.945 21.2017C33.945 22.2582 30.1521 23.1464 25.0733 23.3724"
    fill="white" />
</svg>