<svg width="30" height="30" viewBox="0 0 30 30" fill="none" xmlns="http://www.w3.org/2000/svg">
  <path
    d="M25.5063 25.25H4.50625C4.15625 25.25 3.83125 25.05 3.63125 24.75C3.45625 24.45 3.45625 24.075 3.63125 23.75L14.1313 5.25C14.3063 4.925 14.6313 4.75 15.0063 4.75C15.3813 4.75 15.7063 4.95 15.8813 5.25L26.3813 23.75C26.5563 24.05 26.5563 24.45 26.3813 24.75C26.1813 25.05 25.8563 25.25 25.5063 25.25ZM6.23126 23.25H23.8062L15.0312 7.77499L6.23126 23.25ZM16.0063 17.275V12.625C16.0063 12.075 15.5563 11.625 15.0063 11.625C14.4563 11.625 14.0063 12.075 14.0063 12.625V17.275C14.0063 17.825 14.4563 18.275 15.0063 18.275C15.5563 18.275 16.0063 17.825 16.0063 17.275ZM15.8813 21.425C16.1063 21.2 16.2563 20.875 16.2563 20.55C16.2563 20.225 16.1313 19.9 15.8813 19.675C15.6563 19.45 15.3313 19.3 15.0063 19.3C14.6813 19.3 14.3563 19.425 14.1313 19.675C13.9063 19.9 13.7563 20.225 13.7563 20.55C13.7563 20.875 13.8813 21.2 14.1313 21.425C14.3563 21.65 14.6813 21.8 15.0063 21.8C15.3313 21.8 15.6563 21.65 15.8813 21.425Z"
    fill="#B50A0A" />
</svg>