<svg width="645" height="118" viewBox="0 0 645 118" fill="none" xmlns="http://www.w3.org/2000/svg">
<path d="M0.832275 68.7949V71.2756H16.9789C22.5979 71.2756 27.2438 70.581 31.386 69.2017C35.5195 67.829 38.977 65.8279 42.3054 63.4066C45.2979 61.2335 48.2904 58.6336 51.5714 55.7791L52.5746 54.9092C56.2948 51.6842 60.5102 48.0688 65.7977 44.1062C71.0033 40.2031 78.2026 38.1987 85.6946 38.1987H110.629V0.160156H94.4827C88.8636 0.160156 84.2177 0.854772 80.0756 2.23408C75.942 3.60678 72.4845 5.60793 69.1562 8.02586C66.1636 10.2023 63.1711 12.8022 59.8901 15.6567L58.8869 16.5266C55.1667 19.7516 50.9514 23.367 45.6639 27.3296C40.4582 31.2327 33.259 33.2371 25.767 33.2371H0.832275V68.7949Z" fill="#15BBC6"/>
<path d="M0.832031 115.171V117.652H16.9786C22.5977 117.652 27.2436 116.957 31.3857 115.578C35.5193 114.205 38.9768 112.204 42.3052 109.783C45.2977 107.609 48.2902 105.01 51.5712 102.155L52.5744 101.285C56.2946 98.0601 60.5099 94.4448 65.7974 90.4822C71.0031 86.5791 78.2023 84.5746 85.6943 84.5746H110.629V46.5361H94.4824C88.8634 46.5361 84.2175 47.2307 80.0753 48.6101C75.9418 49.9828 72.4843 51.9839 69.1559 54.4018C66.1634 56.5783 63.1709 59.1782 59.8899 62.0327L58.8867 62.9026C55.1665 66.1276 50.9511 69.7429 45.6637 73.7056C40.458 77.6086 33.2587 79.6131 25.7667 79.6131H0.832031V115.171Z" fill="#81DFE4"/>
<path fill-rule="evenodd" clip-rule="evenodd" d="M197.037 39.7408L204.81 31.9677L203.65 30.8075C197.491 24.649 189.206 21.2168 180.485 21.2168C163.982 21.2168 150.002 33.5243 147.981 49.9116C147.817 51.2555 147.73 52.6186 147.73 53.9722C147.73 55.3257 147.817 56.689 147.981 58.0328C150.011 74.4202 163.991 86.7275 180.485 86.7275C189.196 86.7275 197.482 83.2954 203.65 77.1369L204.81 75.9767L197.037 68.194L195.877 69.3541C191.787 73.4437 186.286 75.7253 180.495 75.7253C169.879 75.7253 160.772 68.0393 159.032 57.5591C158.838 56.3699 158.732 55.171 158.732 53.9722C158.732 52.7733 158.829 51.5649 159.032 50.3854C160.772 39.9052 169.879 32.219 180.495 32.219C186.286 32.219 191.787 34.5008 195.877 38.5904L197.037 39.7505V39.7408Z" fill="white"/>
<path fill-rule="evenodd" clip-rule="evenodd" d="M275.513 21.7486H286.515V32.7508H281.014V86.1957H270.011V78.4613C265.206 82.7442 259.115 85.635 252.319 86.4762C250.975 86.6405 249.612 86.7275 248.258 86.7275C246.905 86.7275 245.541 86.6405 244.198 86.4762C227.81 84.4555 215.503 70.4755 215.503 53.9722C215.503 37.4688 227.81 23.4888 244.198 21.4682C245.541 21.3038 246.895 21.2168 248.258 21.2168C249.621 21.2168 250.975 21.3038 252.319 21.4682C259.115 22.3093 265.206 25.2097 270.011 29.483V21.7486H275.513ZM252.125 32.5574C262.48 34.404 270.011 43.463 270.011 53.9722C270.011 64.4813 262.325 73.6949 251.845 75.4352C250.656 75.6286 249.457 75.735 248.258 75.735C247.059 75.735 245.851 75.6382 244.671 75.4352L244.372 75.3869C234.027 73.5307 226.505 64.4717 226.505 53.9818C226.505 43.492 234.191 34.2591 244.671 32.5188C245.86 32.3255 247.059 32.219 248.258 32.219C249.457 32.219 250.666 32.3158 251.845 32.5188L252.125 32.5671V32.5574Z" fill="white"/>
<path fill-rule="evenodd" clip-rule="evenodd" d="M329.711 22.0391C338.461 22.0391 346.273 26.2543 351.213 32.7512C356.154 26.2543 363.965 22.0391 372.715 22.0391C387.565 22.0391 399.718 34.1917 399.718 49.0419V86.7279H388.716V49.0419C388.716 40.2633 381.494 33.0413 372.715 33.0413C363.936 33.0413 356.714 40.2633 356.714 49.0419V86.7279H345.712V49.0419C345.712 40.2633 338.49 33.0413 329.711 33.0413C320.933 33.0413 313.711 40.2633 313.711 49.0419V86.7279H302.708V34.3465H297.207V23.3442H313.711V27.3275C318.197 24.0113 323.737 22.0391 329.711 22.0391Z" fill="white"/>
<path fill-rule="evenodd" clip-rule="evenodd" d="M470.42 21.7486H481.423V32.7508H475.922V86.1957H464.919V78.4613C460.114 82.7442 454.023 85.635 447.227 86.4762C445.883 86.6405 444.52 86.7275 443.166 86.7275C441.813 86.7275 440.449 86.6405 439.106 86.4762C422.718 84.4555 410.411 70.4755 410.411 53.9722C410.411 37.4688 422.718 23.4888 439.106 21.4682C440.449 21.3038 441.803 21.2168 443.166 21.2168C444.529 21.2168 445.883 21.3038 447.227 21.4682C454.023 22.3093 460.114 25.2097 464.919 29.483V21.7486H470.42ZM447.033 32.5574C457.388 34.404 464.919 43.463 464.919 53.9722C464.919 64.4813 457.233 73.6949 446.753 75.4352C445.564 75.6286 444.365 75.735 443.166 75.735C441.967 75.735 440.759 75.6382 439.579 75.4352L439.28 75.3869C428.935 73.5307 421.413 64.4717 421.413 53.9818C421.413 43.492 429.099 34.2591 439.579 32.5188C440.768 32.3255 441.967 32.219 443.166 32.219C444.365 32.219 445.573 32.3158 446.753 32.5188L447.033 32.5671V32.5574Z" fill="white"/>
<path fill-rule="evenodd" clip-rule="evenodd" d="M520.81 21.4686C504.423 23.4892 492.115 37.4692 492.115 53.9726C492.115 70.4759 504.423 84.4559 520.81 86.4766C522.154 86.6409 523.508 86.7279 524.871 86.7279C526.234 86.7279 527.587 86.6409 528.931 86.4766C535.728 85.6354 541.819 82.735 546.624 78.4617V86.1961H557.626V11.1624H563.127V0.160156H546.624V29.4834C541.819 25.2005 535.728 22.3097 528.931 21.4686C527.587 21.3042 526.224 21.2172 524.871 21.2172C523.517 21.2172 522.154 21.3042 520.81 21.4686ZM528.738 32.5578C539.092 34.4044 546.624 43.4634 546.624 53.9726C546.624 64.4817 538.938 73.6954 528.458 75.4356C527.268 75.629 526.07 75.7354 524.871 75.7354C523.672 75.7354 522.463 75.6386 521.284 75.4356L520.984 75.3873C510.639 73.5311 503.118 64.4721 503.118 53.9822C503.118 43.4924 510.804 34.2595 521.284 32.5192C522.473 32.3259 523.672 32.2195 524.871 32.2195C526.07 32.2195 527.278 32.3162 528.458 32.5192L528.738 32.5675V32.5578Z" fill="white"/>
<path fill-rule="evenodd" clip-rule="evenodd" d="M633.83 21.7486H644.832V32.7508H639.331V86.1957H628.329V78.4613C623.523 82.7442 617.433 85.635 610.636 86.4762C609.292 86.6405 607.929 86.7275 606.575 86.7275C605.222 86.7275 603.859 86.6405 602.515 86.4762C586.127 84.4555 573.82 70.4755 573.82 53.9722C573.82 37.4688 586.127 23.4888 602.515 21.4682C603.859 21.3038 605.212 21.2168 606.575 21.2168C607.939 21.2168 609.292 21.3038 610.636 21.4682C617.433 22.3093 623.523 25.2097 628.329 29.483V21.7486H633.83ZM610.443 32.5574C620.797 34.404 628.329 43.463 628.329 53.9722C628.329 64.4813 620.642 73.6949 610.162 75.4352C608.973 75.6286 607.774 75.735 606.575 75.735C605.376 75.735 604.168 75.6382 602.988 75.4352L602.689 75.3869C592.344 73.5307 584.822 64.4717 584.822 53.9818C584.822 43.492 592.508 34.2591 602.988 32.5188C604.178 32.3255 605.376 32.219 606.575 32.219C607.774 32.219 608.983 32.3158 610.162 32.5188L610.443 32.5671V32.5574Z" fill="white"/>
</svg>
